<?xml version="1.0" encoding="UTF-8"?>
<svg xmlns="http://www.w3.org/2000/svg" xmlns:xlink="http://www.w3.org/1999/xlink" width="40px" height="40px" viewBox="0 0 40 40" version="1.1">
<g id="surface1">
<path style=" stroke:none;fill-rule:nonzero;fill:rgb(97.254902%,97.254902%,97.254902%);fill-opacity:1;" d="M 0 0 C 13.199219 0 26.398438 0 40 0 C 40 13.199219 40 26.398438 40 40 C 26.800781 40 13.601562 40 0 40 C 0 26.800781 0 13.601562 0 0 Z M 0 0 "/>
<path style=" stroke:none;fill-rule:nonzero;fill:rgb(10.980392%,10.980392%,10.980392%);fill-opacity:1;" d="M 23 5.535156 C 23 5.578125 23 5.621094 23 5.667969 C 23.035156 5.683594 23.070312 5.695312 23.109375 5.710938 C 24.035156 6.226562 24.640625 7.363281 24.953125 8.339844 C 25.261719 9.640625 25.046875 11.003906 24.464844 12.199219 C 24.382812 12.3125 24.292969 12.425781 24.199219 12.535156 C 24.140625 12.609375 24.140625 12.609375 24.082031 12.6875 C 23.613281 13.300781 23.085938 13.8125 22.40625 14.183594 C 22.261719 14.269531 22.164062 14.328125 22.066406 14.464844 C 22.070312 14.53125 22.074219 14.597656 22.074219 14.664062 C 22.074219 14.730469 22.070312 14.796875 22.066406 14.867188 C 21.914062 15 21.914062 15 21.714844 15.113281 C 21.265625 15.339844 21.265625 15.339844 21 15.734375 C 20.949219 15.957031 20.949219 15.957031 21 16.199219 C 21.160156 16.378906 21.339844 16.523438 21.535156 16.667969 C 21.496094 16.898438 21.425781 16.996094 21.246094 17.144531 C 21.207031 17.179688 21.167969 17.214844 21.125 17.25 C 20.992188 17.339844 20.886719 17.367188 20.734375 17.398438 C 20.734375 17.4375 20.734375 17.476562 20.734375 17.515625 C 20.726562 19.742188 20.722656 21.96875 20.714844 24.195312 C 20.714844 24.464844 20.714844 24.730469 20.710938 24.996094 C 20.710938 25.078125 20.710938 25.078125 20.710938 25.160156 C 20.710938 26.019531 20.707031 26.882812 20.703125 27.746094 C 20.703125 28.628906 20.699219 29.515625 20.695312 30.398438 C 20.695312 30.945312 20.695312 31.492188 20.691406 32.035156 C 20.691406 32.453125 20.691406 32.871094 20.6875 33.289062 C 20.6875 33.464844 20.6875 33.636719 20.6875 33.808594 C 20.6875 34.039062 20.6875 34.273438 20.683594 34.507812 C 20.683594 34.578125 20.683594 34.644531 20.6875 34.71875 C 20.683594 34.777344 20.683594 34.839844 20.683594 34.90625 C 20.683594 34.960938 20.683594 35.011719 20.683594 35.070312 C 20.667969 35.199219 20.667969 35.199219 20.535156 35.332031 C 20.335938 35.347656 20.140625 35.351562 19.941406 35.351562 C 19.882812 35.351562 19.824219 35.351562 19.765625 35.351562 C 19.640625 35.351562 19.515625 35.351562 19.390625 35.351562 C 19.199219 35.351562 19.011719 35.351562 18.820312 35.351562 C 18.699219 35.351562 18.578125 35.351562 18.457031 35.351562 C 18.402344 35.351562 18.34375 35.351562 18.285156 35.351562 C 17.882812 35.347656 17.882812 35.347656 17.734375 35.199219 C 17.714844 35.035156 17.714844 35.035156 17.710938 34.828125 C 17.707031 34.753906 17.707031 34.679688 17.703125 34.601562 C 17.703125 34.445312 17.699219 34.289062 17.695312 34.132812 C 17.695312 34.058594 17.691406 33.984375 17.691406 33.90625 C 17.6875 33.839844 17.6875 33.769531 17.6875 33.699219 C 17.683594 33.523438 17.683594 33.523438 17.535156 33.398438 C 17.261719 33.367188 17.261719 33.367188 17.023438 33.476562 C 16.902344 33.644531 16.90625 33.761719 16.902344 33.964844 C 16.902344 34.035156 16.898438 34.105469 16.898438 34.179688 C 16.898438 34.289062 16.898438 34.289062 16.894531 34.402344 C 16.894531 34.550781 16.890625 34.699219 16.886719 34.84375 C 16.886719 34.910156 16.886719 34.972656 16.882812 35.042969 C 16.867188 35.199219 16.867188 35.199219 16.734375 35.332031 C 16.585938 35.351562 16.585938 35.351562 16.402344 35.351562 C 16.339844 35.351562 16.273438 35.351562 16.207031 35.351562 C 16.136719 35.351562 16.070312 35.351562 16 35.351562 C 15.933594 35.351562 15.863281 35.351562 15.792969 35.351562 C 15.726562 35.351562 15.664062 35.351562 15.597656 35.351562 C 15.535156 35.351562 15.476562 35.351562 15.414062 35.351562 C 15.265625 35.332031 15.265625 35.332031 15.132812 35.199219 C 15.121094 35.003906 15.117188 34.816406 15.117188 34.621094 C 15.117188 34.5625 15.117188 34.503906 15.117188 34.441406 C 15.117188 34.242188 15.121094 34.042969 15.121094 33.84375 C 15.121094 33.707031 15.121094 33.570312 15.121094 33.433594 C 15.121094 33.070312 15.121094 32.710938 15.125 32.347656 C 15.125 31.980469 15.125 31.609375 15.125 31.242188 C 15.128906 30.515625 15.128906 29.792969 15.132812 29.066406 C 15.296875 28.984375 15.410156 28.992188 15.597656 28.992188 C 15.660156 28.992188 15.726562 28.992188 15.792969 28.992188 C 15.863281 28.992188 15.929688 28.992188 16 28.992188 C 16.066406 28.992188 16.136719 28.992188 16.207031 28.992188 C 16.273438 28.992188 16.335938 28.992188 16.402344 28.992188 C 16.492188 28.992188 16.492188 28.992188 16.585938 28.992188 C 16.734375 29 16.734375 29 16.867188 29.066406 C 16.867188 29.117188 16.871094 29.164062 16.871094 29.214844 C 16.878906 29.441406 16.882812 29.664062 16.890625 29.886719 C 16.894531 29.964844 16.894531 30.042969 16.898438 30.125 C 16.902344 30.199219 16.902344 30.273438 16.90625 30.347656 C 16.90625 30.417969 16.910156 30.488281 16.910156 30.558594 C 16.921875 30.75 16.921875 30.75 17.066406 30.933594 C 17.300781 30.960938 17.300781 30.960938 17.535156 30.933594 C 17.710938 30.757812 17.683594 30.671875 17.691406 30.425781 C 17.691406 30.351562 17.695312 30.277344 17.695312 30.203125 C 17.695312 30.125 17.699219 30.046875 17.699219 29.964844 C 17.703125 29.8125 17.707031 29.660156 17.710938 29.507812 C 17.710938 29.4375 17.714844 29.371094 17.714844 29.300781 C 17.734375 29.132812 17.734375 29.132812 17.867188 29 C 18.261719 29 18.660156 29 19.066406 29 C 19.042969 25.171875 19.023438 21.34375 19 17.398438 C 18.890625 17.355469 18.78125 17.3125 18.667969 17.265625 C 18.542969 17.175781 18.542969 17.175781 18.441406 17.074219 C 18.40625 17.042969 18.371094 17.007812 18.335938 16.976562 C 18.265625 16.867188 18.265625 16.867188 18.273438 16.730469 C 18.347656 16.570312 18.425781 16.519531 18.574219 16.421875 C 18.761719 16.273438 18.761719 16.273438 18.820312 16.050781 C 18.792969 15.789062 18.746094 15.554688 18.601562 15.332031 C 18.433594 15.222656 18.257812 15.136719 18.082031 15.042969 C 17.933594 14.933594 17.933594 14.933594 17.882812 14.769531 C 17.875 14.667969 17.863281 14.566406 17.859375 14.460938 C 17.761719 14.246094 17.546875 14.171875 17.347656 14.066406 C 16.101562 13.363281 15.378906 12.21875 14.984375 10.863281 C 14.921875 10.621094 14.875 10.386719 14.867188 10.132812 C 14.863281 10.054688 14.859375 9.976562 14.855469 9.898438 C 14.8125 8.4375 15.304688 7.15625 16.308594 6.089844 C 18.195312 4.21875 20.808594 4.207031 23 5.535156 Z M 23 5.535156 "/>
<path style=" stroke:none;fill-rule:nonzero;fill:rgb(2.352941%,2.352941%,2.352941%);fill-opacity:1;" d="M 21.601562 5.933594 C 21.679688 5.972656 21.679688 5.972656 21.757812 6.007812 C 22.132812 6.203125 22.492188 6.445312 22.800781 6.734375 C 22.800781 6.777344 22.800781 6.820312 22.800781 6.867188 C 22.84375 6.867188 22.886719 6.867188 22.933594 6.867188 C 22.933594 6.910156 22.933594 6.953125 22.933594 7 C 22.976562 7 23.019531 7 23.066406 7 C 23.066406 7.066406 23.066406 7.132812 23.066406 7.199219 C 23.109375 7.214844 23.148438 7.234375 23.191406 7.25 C 23.359375 7.347656 23.402344 7.425781 23.484375 7.601562 C 23.503906 7.648438 23.527344 7.695312 23.550781 7.742188 C 23.601562 7.867188 23.601562 7.867188 23.601562 8 C 23.644531 8 23.6875 8 23.734375 8 C 23.765625 8.265625 23.765625 8.265625 23.800781 8.535156 C 23.699219 8.566406 23.699219 8.566406 23.601562 8.601562 C 23.5 8.535156 23.5 8.535156 23.398438 8.464844 C 23.378906 8.554688 23.355469 8.644531 23.332031 8.734375 C 23.378906 8.734375 23.421875 8.734375 23.464844 8.734375 C 23.550781 9.058594 23.550781 9.382812 23.554688 9.714844 C 23.558594 9.800781 23.558594 9.800781 23.558594 9.890625 C 23.5625 10.261719 23.503906 10.53125 23.332031 10.863281 C 23.265625 11.003906 23.230469 11.132812 23.199219 11.285156 C 23.050781 11.757812 22.625 12.136719 22.265625 12.464844 C 22.222656 12.464844 22.179688 12.464844 22.132812 12.464844 C 22.132812 12.511719 22.132812 12.554688 22.132812 12.601562 C 21.296875 13.230469 20.40625 13.316406 19.394531 13.285156 C 19.265625 13.265625 19.265625 13.265625 19.066406 13.132812 C 18.933594 13.101562 18.804688 13.070312 18.671875 13.039062 C 18.476562 12.984375 18.308594 12.894531 18.132812 12.800781 C 18.132812 12.757812 18.132812 12.710938 18.132812 12.667969 C 18.0625 12.640625 18.0625 12.640625 17.992188 12.617188 C 17.773438 12.519531 17.589844 12.414062 17.398438 12.265625 C 17.398438 12.199219 17.398438 12.132812 17.398438 12.066406 C 17.335938 12.066406 17.269531 12.066406 17.199219 12.066406 C 17.199219 12 17.199219 11.933594 17.199219 11.867188 C 17.046875 11.976562 16.890625 12.085938 16.734375 12.199219 C 16.535156 11.957031 16.535156 11.957031 16.535156 11.734375 C 16.488281 11.734375 16.445312 11.734375 16.398438 11.734375 C 16.355469 11.558594 16.3125 11.382812 16.265625 11.199219 C 16.222656 11.199219 16.179688 11.199219 16.132812 11.199219 C 15.8125 9.765625 15.894531 8.640625 16.601562 7.332031 C 16.644531 7.332031 16.6875 7.332031 16.734375 7.332031 C 16.753906 7.292969 16.773438 7.25 16.796875 7.207031 C 16.839844 7.117188 16.886719 7.023438 16.933594 6.933594 C 16.976562 6.933594 17.019531 6.933594 17.066406 6.933594 C 17.089844 6.867188 17.109375 6.800781 17.132812 6.734375 C 17.265625 6.640625 17.398438 6.554688 17.535156 6.464844 C 17.574219 6.425781 17.613281 6.382812 17.652344 6.335938 C 17.828125 6.171875 18 6.089844 18.214844 5.992188 C 18.289062 5.957031 18.359375 5.925781 18.433594 5.890625 C 19.378906 5.519531 20.679688 5.472656 21.601562 5.933594 Z M 21.601562 5.933594 "/>
<path style=" stroke:none;fill-rule:nonzero;fill:rgb(85.09804%,85.09804%,85.09804%);fill-opacity:1;" d="M 20.347656 3.320312 C 20.417969 3.320312 20.417969 3.320312 20.492188 3.316406 C 20.746094 3.316406 20.910156 3.347656 21.132812 3.464844 C 21.285156 3.492188 21.4375 3.515625 21.585938 3.535156 C 21.992188 3.585938 22.347656 3.671875 22.734375 3.800781 C 22.800781 3.898438 22.800781 3.898438 22.867188 4 C 22.996094 4.054688 22.996094 4.054688 23.144531 4.085938 C 23.472656 4.1875 23.699219 4.351562 23.933594 4.601562 C 23.957031 4.644531 23.976562 4.6875 24 4.734375 C 24.132812 4.78125 24.265625 4.828125 24.398438 4.867188 C 24.398438 4.933594 24.398438 5 24.398438 5.066406 C 24.464844 5.089844 24.53125 5.109375 24.601562 5.132812 C 24.621094 5.199219 24.644531 5.265625 24.667969 5.332031 C 24.753906 5.402344 24.84375 5.46875 24.933594 5.535156 C 24.933594 5.578125 24.933594 5.621094 24.933594 5.667969 C 24.976562 5.667969 25.019531 5.667969 25.066406 5.667969 C 25.066406 5.734375 25.066406 5.796875 25.066406 5.867188 C 25.109375 5.867188 25.15625 5.867188 25.199219 5.867188 C 25.3125 6.089844 25.421875 6.3125 25.535156 6.535156 C 25.578125 6.535156 25.621094 6.535156 25.667969 6.535156 C 25.882812 7.160156 25.882812 7.160156 25.933594 7.464844 C 25.976562 7.464844 26.019531 7.464844 26.066406 7.464844 C 26.066406 7.644531 26.066406 7.820312 26.066406 8 C 26.109375 8 26.15625 8 26.199219 8 C 26.265625 8.335938 26.28125 8.660156 26.28125 9 C 26.28125 9.054688 26.285156 9.113281 26.285156 9.171875 C 26.285156 9.292969 26.285156 9.414062 26.285156 9.53125 C 26.289062 9.65625 26.289062 9.777344 26.289062 9.898438 C 26.308594 11.132812 26.308594 11.132812 26 11.734375 C 25.929688 11.953125 25.871094 12.175781 25.808594 12.402344 C 25.726562 12.621094 25.617188 12.757812 25.464844 12.933594 C 25.410156 13.027344 25.359375 13.121094 25.308594 13.214844 C 24.984375 13.808594 24.683594 14.207031 24.132812 14.601562 C 24.0625 14.652344 23.992188 14.707031 23.921875 14.761719 C 23.351562 15.199219 23.351562 15.199219 23.199219 15.199219 C 23.191406 15.273438 23.191406 15.273438 23.179688 15.347656 C 23.113281 15.613281 22.996094 15.804688 22.800781 16 C 22.785156 16.175781 22.777344 16.351562 22.773438 16.527344 C 22.753906 17.082031 22.703125 17.65625 22.289062 18.066406 C 22.210938 18.132812 22.210938 18.132812 22.132812 18.199219 C 22.070312 18.382812 22.058594 18.492188 22.058594 18.683594 C 22.058594 18.769531 22.058594 18.769531 22.058594 18.859375 C 22.058594 18.921875 22.058594 18.988281 22.058594 19.050781 C 22.058594 19.121094 22.054688 19.1875 22.054688 19.257812 C 22.054688 19.484375 22.054688 19.714844 22.054688 19.941406 C 22.054688 20.105469 22.054688 20.269531 22.054688 20.429688 C 22.054688 20.785156 22.050781 21.136719 22.050781 21.488281 C 22.050781 21.996094 22.050781 22.507812 22.046875 23.015625 C 22.046875 23.84375 22.042969 24.671875 22.039062 25.5 C 22.039062 25.574219 22.039062 25.574219 22.039062 25.648438 C 22.039062 26.351562 22.035156 27.054688 22.035156 27.757812 C 22.035156 27.804688 22.035156 27.855469 22.035156 27.90625 C 22.035156 27.980469 22.035156 27.980469 22.035156 28.054688 C 22.03125 28.878906 22.03125 29.703125 22.027344 30.527344 C 22.027344 31.035156 22.023438 31.542969 22.023438 32.050781 C 22.023438 32.441406 22.023438 32.832031 22.019531 33.222656 C 22.019531 33.382812 22.019531 33.539062 22.019531 33.699219 C 22.019531 33.917969 22.019531 34.136719 22.019531 34.355469 C 22.019531 34.449219 22.019531 34.449219 22.019531 34.546875 C 22.011719 35.195312 21.941406 35.738281 21.515625 36.246094 C 21.082031 36.613281 20.550781 36.550781 20.007812 36.542969 C 19.886719 36.542969 19.886719 36.542969 19.757812 36.542969 C 19.496094 36.542969 19.234375 36.539062 18.972656 36.539062 C 18.707031 36.535156 18.445312 36.535156 18.183594 36.53125 C 18.019531 36.53125 17.859375 36.53125 17.695312 36.527344 C 17.300781 36.527344 16.925781 36.542969 16.535156 36.601562 C 15.796875 36.648438 15.109375 36.613281 14.398438 36.398438 C 14.398438 36.355469 14.398438 36.3125 14.398438 36.265625 C 14.355469 36.265625 14.3125 36.265625 14.265625 36.265625 C 14.265625 36.199219 14.265625 36.132812 14.265625 36.066406 C 14.222656 36.066406 14.179688 36.066406 14.132812 36.066406 C 13.8125 35.644531 13.855469 35.117188 13.855469 34.613281 C 13.855469 34.550781 13.855469 34.484375 13.855469 34.417969 C 13.851562 34.210938 13.851562 34 13.851562 33.789062 C 13.851562 33.71875 13.851562 33.644531 13.851562 33.570312 C 13.847656 33.191406 13.847656 32.808594 13.847656 32.429688 C 13.847656 32.035156 13.84375 31.644531 13.839844 31.25 C 13.839844 30.949219 13.839844 30.648438 13.839844 30.34375 C 13.839844 30.199219 13.835938 30.054688 13.835938 29.910156 C 13.835938 29.707031 13.835938 29.503906 13.835938 29.304688 C 13.835938 29.242188 13.832031 29.183594 13.832031 29.121094 C 13.835938 28.769531 13.875 28.59375 14.132812 28.332031 C 14.15625 28.285156 14.179688 28.238281 14.203125 28.1875 C 14.320312 27.964844 14.53125 27.898438 14.753906 27.824219 C 15.28125 27.683594 16.296875 27.546875 16.800781 27.800781 C 16.800781 27.84375 16.800781 27.886719 16.800781 27.933594 C 16.964844 27.925781 17.128906 27.917969 17.296875 27.910156 C 17.367188 27.90625 17.367188 27.90625 17.4375 27.902344 C 17.558594 27.894531 17.679688 27.882812 17.800781 27.867188 C 17.878906 27.707031 17.875 27.605469 17.875 27.425781 C 17.875 27.359375 17.875 27.292969 17.875 27.226562 C 17.875 27.152344 17.875 27.082031 17.875 27.007812 C 17.875 26.933594 17.875 26.855469 17.875 26.777344 C 17.875 26.527344 17.875 26.277344 17.875 26.023438 C 17.875 25.847656 17.875 25.671875 17.875 25.496094 C 17.875 25.128906 17.875 24.757812 17.875 24.390625 C 17.875 23.964844 17.875 23.542969 17.875 23.121094 C 17.875 22.753906 17.875 22.390625 17.875 22.023438 C 17.875 21.808594 17.875 21.589844 17.875 21.371094 C 17.875 20.3125 17.855469 19.257812 17.800781 18.199219 C 17.757812 18.191406 17.714844 18.183594 17.671875 18.175781 C 17.535156 18.132812 17.535156 18.132812 17.4375 18.011719 C 17.191406 17.535156 17.148438 17.121094 17.144531 16.589844 C 17.144531 16.515625 17.140625 16.4375 17.140625 16.359375 C 17.136719 16.171875 17.132812 15.988281 17.132812 15.800781 C 17.066406 15.777344 17 15.757812 16.933594 15.734375 C 16.804688 15.535156 16.800781 15.449219 16.800781 15.199219 C 16.746094 15.1875 16.691406 15.171875 16.632812 15.160156 C 16.382812 15.058594 16.207031 14.933594 15.996094 14.765625 C 15.855469 14.652344 15.855469 14.652344 15.640625 14.527344 C 15.449219 14.386719 15.398438 14.292969 15.332031 14.066406 C 15.289062 14.066406 15.246094 14.066406 15.199219 14.066406 C 15.199219 14 15.199219 13.933594 15.199219 13.867188 C 15.15625 13.867188 15.113281 13.867188 15.066406 13.867188 C 14.957031 13.773438 14.957031 13.773438 14.867188 13.667969 C 14.867188 13.621094 14.867188 13.578125 14.867188 13.535156 C 14.824219 13.535156 14.777344 13.535156 14.734375 13.535156 C 14.6875 13.378906 14.644531 13.226562 14.601562 13.066406 C 14.554688 13.066406 14.511719 13.066406 14.464844 13.066406 C 14.402344 12.867188 14.335938 12.671875 14.265625 12.464844 C 14.222656 12.464844 14.179688 12.464844 14.132812 12.464844 C 14.113281 12.289062 14.089844 12.113281 14.066406 11.933594 C 14 11.910156 13.933594 11.890625 13.867188 11.867188 C 13.855469 11.734375 13.839844 11.601562 13.828125 11.46875 C 13.804688 11.3125 13.804688 11.3125 13.667969 11.132812 C 13.65625 10.945312 13.648438 10.765625 13.652344 10.582031 C 13.652344 10.527344 13.652344 10.472656 13.652344 10.414062 C 13.652344 10.300781 13.652344 10.183594 13.652344 10.070312 C 13.652344 9.894531 13.65625 9.71875 13.652344 9.542969 C 13.65625 9.429688 13.65625 9.316406 13.65625 9.207031 C 13.65625 9.152344 13.65625 9.101562 13.65625 9.050781 C 13.660156 8.695312 13.691406 8.351562 13.734375 8 C 13.777344 8 13.820312 8 13.867188 8 C 13.867188 7.957031 13.867188 7.914062 13.863281 7.871094 C 13.882812 7.277344 14.113281 6.84375 14.398438 6.332031 C 14.445312 6.332031 14.488281 6.332031 14.535156 6.332031 C 14.535156 6.246094 14.535156 6.15625 14.535156 6.066406 C 14.582031 6.039062 14.625 6.011719 14.675781 5.984375 C 14.972656 5.800781 15.179688 5.511719 15.332031 5.199219 C 15.378906 5.199219 15.421875 5.199219 15.464844 5.199219 C 15.464844 5.113281 15.464844 5.023438 15.464844 4.933594 C 15.527344 4.90625 15.585938 4.882812 15.648438 4.855469 C 15.871094 4.75 15.871094 4.75 15.980469 4.578125 C 16.179688 4.34375 16.410156 4.234375 16.683594 4.09375 C 16.867188 4.003906 16.867188 4.003906 17.035156 3.890625 C 17.253906 3.769531 17.460938 3.746094 17.707031 3.707031 C 17.886719 3.660156 17.984375 3.578125 18.132812 3.464844 C 18.335938 3.433594 18.527344 3.414062 18.734375 3.398438 C 18.84375 3.390625 18.84375 3.390625 18.953125 3.382812 C 19.417969 3.34375 19.882812 3.324219 20.347656 3.320312 Z M 18.132812 3.800781 C 18.058594 3.820312 17.980469 3.839844 17.902344 3.859375 C 17.375 4.007812 16.714844 4.191406 16.398438 4.667969 C 16.265625 4.734375 16.132812 4.800781 16 4.867188 C 15.511719 5.230469 15.144531 5.660156 14.867188 6.199219 C 14.867188 6.242188 14.867188 6.289062 14.867188 6.332031 C 14.769531 6.367188 14.769531 6.367188 14.667969 6.398438 C 13.972656 7.425781 13.921875 8.582031 13.925781 9.769531 C 13.925781 9.929688 13.925781 10.089844 13.925781 10.25 C 13.925781 10.351562 13.925781 10.453125 13.925781 10.554688 C 13.925781 10.601562 13.925781 10.652344 13.925781 10.699219 C 13.925781 10.921875 13.933594 11.121094 14 11.332031 C 14.042969 11.332031 14.089844 11.332031 14.132812 11.332031 C 14.140625 11.417969 14.144531 11.503906 14.148438 11.589844 C 14.214844 12.152344 14.449219 12.609375 14.777344 13.066406 C 14.863281 13.195312 14.933594 13.324219 15 13.464844 C 15.042969 13.464844 15.089844 13.464844 15.132812 13.464844 C 15.199219 13.601562 15.265625 13.734375 15.332031 13.867188 C 15.378906 13.867188 15.421875 13.867188 15.464844 13.867188 C 15.464844 13.910156 15.464844 13.953125 15.464844 14 C 15.511719 14 15.554688 14 15.601562 14 C 15.601562 14.066406 15.601562 14.132812 15.601562 14.199219 C 15.6875 14.222656 15.777344 14.242188 15.867188 14.265625 C 15.867188 14.3125 15.867188 14.355469 15.867188 14.398438 C 15.992188 14.507812 15.992188 14.507812 16.152344 14.609375 C 16.207031 14.644531 16.261719 14.679688 16.316406 14.71875 C 16.46875 14.816406 16.46875 14.816406 16.667969 14.800781 C 16.6875 14.867188 16.710938 14.933594 16.734375 15 C 16.777344 15.039062 16.820312 15.078125 16.863281 15.121094 C 17.023438 15.292969 17.0625 15.441406 17.132812 15.667969 C 17.167969 15.699219 17.199219 15.726562 17.234375 15.757812 C 17.367188 15.902344 17.355469 15.984375 17.351562 16.179688 C 17.351562 16.265625 17.351562 16.265625 17.351562 16.359375 C 17.347656 16.421875 17.347656 16.480469 17.347656 16.546875 C 17.34375 16.640625 17.34375 16.640625 17.34375 16.734375 C 17.339844 16.890625 17.335938 17.046875 17.332031 17.199219 C 17.378906 17.199219 17.421875 17.199219 17.464844 17.199219 C 17.464844 17.332031 17.464844 17.464844 17.464844 17.601562 C 17.511719 17.601562 17.554688 17.601562 17.601562 17.601562 C 17.609375 17.660156 17.609375 17.660156 17.621094 17.726562 C 17.660156 17.890625 17.660156 17.890625 17.867188 18 C 17.925781 18.179688 17.945312 18.300781 17.953125 18.484375 C 17.957031 18.542969 17.960938 18.601562 17.960938 18.664062 C 17.964844 18.726562 17.96875 18.789062 17.96875 18.855469 C 17.972656 18.921875 17.976562 18.992188 17.976562 19.0625 C 18.007812 19.898438 18.015625 20.734375 18.019531 21.570312 C 18.023438 21.800781 18.023438 22.03125 18.023438 22.261719 C 18.027344 22.691406 18.03125 23.125 18.035156 23.554688 C 18.039062 24.046875 18.042969 24.539062 18.046875 25.035156 C 18.050781 26.042969 18.058594 27.054688 18.066406 28.066406 C 17.980469 28.0625 17.894531 28.058594 17.804688 28.050781 C 17.691406 28.046875 17.578125 28.039062 17.460938 28.035156 C 17.40625 28.03125 17.347656 28.027344 17.289062 28.023438 C 16.84375 28 16.394531 27.988281 15.945312 27.992188 C 15.84375 27.992188 15.84375 27.992188 15.742188 27.992188 C 15.421875 27.992188 15.117188 28 14.800781 28.066406 C 14.800781 28.109375 14.800781 28.15625 14.800781 28.199219 C 14.667969 28.222656 14.535156 28.242188 14.398438 28.265625 C 14.378906 28.375 14.355469 28.488281 14.332031 28.601562 C 14.289062 28.601562 14.246094 28.601562 14.199219 28.601562 C 14.03125 29.273438 14.046875 29.945312 14.050781 30.632812 C 14.050781 30.757812 14.046875 30.886719 14.046875 31.011719 C 14.046875 31.273438 14.046875 31.535156 14.050781 31.796875 C 14.050781 32.132812 14.050781 32.46875 14.046875 32.800781 C 14.046875 33.0625 14.046875 33.320312 14.046875 33.578125 C 14.050781 33.703125 14.046875 33.828125 14.046875 33.949219 C 13.984375 35.058594 13.984375 35.058594 14.371094 36.042969 C 14.855469 36.441406 15.800781 36.277344 16.402344 36.277344 C 16.519531 36.277344 16.636719 36.277344 16.753906 36.277344 C 16.996094 36.277344 17.242188 36.277344 17.488281 36.277344 C 17.800781 36.277344 18.113281 36.28125 18.421875 36.28125 C 18.664062 36.28125 18.90625 36.28125 19.148438 36.28125 C 19.261719 36.28125 19.378906 36.28125 19.492188 36.28125 C 20.488281 36.324219 20.488281 36.324219 21.398438 36 C 21.398438 35.957031 21.398438 35.910156 21.398438 35.867188 C 21.445312 35.867188 21.488281 35.867188 21.535156 35.867188 C 21.535156 35.734375 21.535156 35.601562 21.535156 35.464844 C 21.578125 35.464844 21.621094 35.464844 21.667969 35.464844 C 21.71875 35.007812 21.742188 34.558594 21.742188 34.101562 C 21.742188 34 21.742188 34 21.742188 33.898438 C 21.742188 33.671875 21.742188 33.449219 21.742188 33.226562 C 21.746094 33.066406 21.746094 32.90625 21.746094 32.742188 C 21.746094 32.398438 21.746094 32.050781 21.746094 31.707031 C 21.746094 31.160156 21.75 30.613281 21.75 30.066406 C 21.75 29.878906 21.75 29.691406 21.75 29.503906 C 21.75 29.457031 21.75 29.410156 21.753906 29.363281 C 21.753906 28.832031 21.753906 28.300781 21.753906 27.769531 C 21.757812 27.71875 21.757812 27.671875 21.757812 27.621094 C 21.757812 26.832031 21.757812 26.046875 21.761719 25.257812 C 21.761719 24.449219 21.761719 23.640625 21.765625 22.828125 C 21.765625 22.328125 21.769531 21.832031 21.769531 21.332031 C 21.769531 20.949219 21.769531 20.566406 21.773438 20.1875 C 21.773438 20.027344 21.773438 19.871094 21.773438 19.714844 C 21.773438 19.5 21.773438 19.289062 21.773438 19.074219 C 21.773438 19.011719 21.773438 18.949219 21.773438 18.886719 C 21.777344 18.519531 21.820312 18.257812 22 17.933594 C 22.054688 17.890625 22.113281 17.851562 22.171875 17.808594 C 22.410156 17.597656 22.441406 17.371094 22.464844 17.066406 C 22.46875 16.820312 22.464844 16.570312 22.449219 16.324219 C 22.445312 16.179688 22.445312 16.179688 22.464844 15.933594 C 22.601562 15.808594 22.601562 15.808594 22.734375 15.734375 C 22.734375 15.6875 22.734375 15.644531 22.734375 15.601562 C 22.777344 15.601562 22.820312 15.601562 22.867188 15.601562 C 22.886719 15.519531 22.90625 15.441406 22.929688 15.359375 C 23.070312 14.988281 23.339844 14.863281 23.667969 14.667969 C 23.800781 14.578125 23.9375 14.484375 24.070312 14.390625 C 24.132812 14.347656 24.195312 14.304688 24.261719 14.261719 C 24.308594 14.21875 24.351562 14.175781 24.398438 14.132812 C 24.398438 14.046875 24.398438 13.957031 24.398438 13.867188 C 24.4375 13.851562 24.472656 13.835938 24.511719 13.820312 C 24.917969 13.589844 25.113281 13.230469 25.320312 12.828125 C 25.347656 12.777344 25.375 12.730469 25.402344 12.675781 C 25.535156 12.421875 25.601562 12.296875 25.601562 12 C 25.644531 12 25.6875 12 25.734375 12 C 25.777344 11.855469 25.820312 11.710938 25.863281 11.566406 C 25.886719 11.484375 25.910156 11.40625 25.933594 11.324219 C 26.28125 9.957031 26.167969 8.417969 25.601562 7.132812 C 25.554688 7.132812 25.511719 7.132812 25.464844 7.132812 C 25.464844 7.023438 25.464844 7.023438 25.460938 6.914062 C 25.414062 6.511719 25.179688 6.175781 24.933594 5.867188 C 24.890625 5.867188 24.84375 5.867188 24.800781 5.867188 C 24.785156 5.828125 24.769531 5.792969 24.753906 5.753906 C 24.640625 5.554688 24.496094 5.421875 24.332031 5.265625 C 24.277344 5.203125 24.21875 5.144531 24.160156 5.078125 C 24.011719 4.910156 24.011719 4.910156 23.800781 4.933594 C 23.777344 4.867188 23.757812 4.800781 23.734375 4.734375 C 23.667969 4.734375 23.601562 4.734375 23.535156 4.734375 C 23.511719 4.667969 23.488281 4.601562 23.464844 4.535156 C 23.234375 4.378906 22.984375 4.257812 22.734375 4.132812 C 22.6875 4.109375 22.640625 4.085938 22.59375 4.0625 C 22.34375 3.945312 22.140625 3.914062 21.867188 3.933594 C 21.867188 3.890625 21.867188 3.84375 21.867188 3.800781 C 20.640625 3.496094 19.359375 3.484375 18.132812 3.800781 Z M 18.132812 3.800781 "/>
<path style=" stroke:none;fill-rule:nonzero;fill:rgb(0.784314%,0.784314%,0.784314%);fill-opacity:1;" d="M 20.035156 5.035156 C 20.132812 5.03125 20.132812 5.03125 20.234375 5.03125 C 20.675781 5.039062 21.050781 5.121094 21.464844 5.265625 C 21.53125 5.289062 21.597656 5.308594 21.664062 5.328125 C 21.734375 5.355469 21.734375 5.355469 21.808594 5.378906 C 21.859375 5.394531 21.90625 5.414062 21.957031 5.429688 C 21.996094 5.441406 22.03125 5.453125 22.066406 5.464844 C 22.066406 5.511719 22.066406 5.554688 22.066406 5.601562 C 22.175781 5.621094 22.285156 5.644531 22.398438 5.667969 C 22.398438 5.710938 22.398438 5.753906 22.398438 5.800781 C 22.488281 5.777344 22.574219 5.757812 22.667969 5.734375 C 22.667969 5.820312 22.667969 5.910156 22.667969 6 C 22.71875 6.019531 22.769531 6.039062 22.820312 6.058594 C 23 6.132812 23 6.132812 23.199219 6.265625 C 23.199219 6.3125 23.199219 6.355469 23.199219 6.398438 C 23.242188 6.398438 23.289062 6.398438 23.332031 6.398438 C 23.332031 6.464844 23.332031 6.53125 23.332031 6.601562 C 23.433594 6.632812 23.433594 6.632812 23.535156 6.667969 C 23.644531 6.804688 23.644531 6.804688 23.734375 6.933594 C 23.84375 6.867188 23.953125 6.800781 24.066406 6.734375 C 24.066406 6.777344 24.066406 6.820312 24.066406 6.867188 C 24.132812 6.886719 24.199219 6.910156 24.265625 6.933594 C 24.265625 6.976562 24.265625 7.019531 24.265625 7.066406 C 24.199219 7.066406 24.132812 7.066406 24.066406 7.066406 C 24.089844 7.128906 24.109375 7.1875 24.132812 7.25 C 24.199219 7.464844 24.199219 7.464844 24.199219 7.734375 C 24.25 7.867188 24.304688 7.996094 24.363281 8.125 C 24.777344 9.046875 24.699219 10.253906 24.398438 11.199219 C 24.382812 11.261719 24.363281 11.324219 24.34375 11.386719 C 24.296875 11.523438 24.25 11.664062 24.199219 11.800781 C 24.15625 11.800781 24.113281 11.800781 24.066406 11.800781 C 23.964844 11.996094 23.878906 12.195312 23.800781 12.398438 C 23.757812 12.398438 23.710938 12.398438 23.667969 12.398438 C 23.632812 12.53125 23.632812 12.53125 23.601562 12.667969 C 23.554688 12.667969 23.511719 12.667969 23.464844 12.667969 C 23.464844 12.710938 23.464844 12.753906 23.464844 12.800781 C 23.421875 12.800781 23.378906 12.800781 23.332031 12.800781 C 23.332031 12.84375 23.332031 12.886719 23.332031 12.933594 C 23.222656 13.023438 23.113281 13.113281 23 13.199219 C 22.976562 13.242188 22.957031 13.289062 22.933594 13.332031 C 22.773438 13.445312 22.773438 13.445312 22.601562 13.535156 C 22.5 13.5 22.5 13.5 22.398438 13.464844 C 22.398438 13.421875 22.398438 13.378906 22.398438 13.332031 C 22.289062 13.289062 22.179688 13.246094 22.066406 13.199219 C 22.066406 13.15625 22.066406 13.113281 22.066406 13.066406 C 22.175781 13.023438 22.285156 12.980469 22.398438 12.933594 C 22.398438 12.890625 22.398438 12.84375 22.398438 12.800781 C 22.515625 12.710938 22.636719 12.632812 22.757812 12.554688 C 22.886719 12.464844 22.886719 12.464844 22.933594 12.265625 C 22.976562 12.265625 23.019531 12.265625 23.066406 12.265625 C 23.085938 12.226562 23.105469 12.191406 23.125 12.148438 C 23.195312 12.011719 23.265625 11.871094 23.332031 11.734375 C 23.378906 11.734375 23.421875 11.734375 23.464844 11.734375 C 23.472656 11.671875 23.480469 11.613281 23.488281 11.550781 C 23.535156 11.324219 23.59375 11.242188 23.734375 11.066406 C 24.058594 10.265625 24.023438 9.246094 23.777344 8.429688 C 23.734375 8.265625 23.734375 8.265625 23.734375 8 C 23.6875 8 23.644531 8 23.601562 8 C 23.574219 7.949219 23.546875 7.894531 23.515625 7.84375 C 23.480469 7.773438 23.445312 7.707031 23.410156 7.636719 C 23.371094 7.570312 23.335938 7.503906 23.300781 7.433594 C 23.214844 7.261719 23.214844 7.261719 23.066406 7.199219 C 23.066406 7.132812 23.066406 7.066406 23.066406 7 C 23.023438 7 22.980469 7 22.933594 7 C 22.933594 6.957031 22.933594 6.910156 22.933594 6.867188 C 22.890625 6.867188 22.84375 6.867188 22.800781 6.867188 C 22.726562 6.789062 22.648438 6.710938 22.574219 6.632812 C 21.855469 5.96875 20.972656 5.695312 20.011719 5.703125 C 19.941406 5.703125 19.871094 5.707031 19.800781 5.707031 C 19.0625 5.71875 18.476562 5.882812 17.847656 6.269531 C 17.734375 6.332031 17.734375 6.332031 17.601562 6.332031 C 17.585938 6.375 17.570312 6.414062 17.554688 6.453125 C 17.445312 6.636719 17.316406 6.695312 17.132812 6.800781 C 17.113281 6.84375 17.089844 6.886719 17.066406 6.933594 C 17.023438 6.933594 16.980469 6.933594 16.933594 6.933594 C 16.902344 6.996094 16.902344 6.996094 16.871094 7.058594 C 16.824219 7.148438 16.777344 7.242188 16.734375 7.332031 C 16.6875 7.332031 16.644531 7.332031 16.601562 7.332031 C 16.582031 7.382812 16.5625 7.429688 16.542969 7.476562 C 16.46875 7.660156 16.386719 7.835938 16.300781 8.011719 C 15.925781 8.84375 15.890625 9.78125 16.105469 10.664062 C 16.144531 10.84375 16.144531 11.015625 16.132812 11.199219 C 16.175781 11.199219 16.222656 11.199219 16.265625 11.199219 C 16.382812 11.40625 16.398438 11.480469 16.398438 11.734375 C 16.445312 11.734375 16.488281 11.734375 16.535156 11.734375 C 16.734375 12.027344 16.734375 12.027344 16.734375 12.199219 C 16.773438 12.203125 16.808594 12.207031 16.851562 12.207031 C 17.074219 12.296875 17.140625 12.46875 17.265625 12.667969 C 17.367188 12.734375 17.367188 12.734375 17.464844 12.800781 C 17.464844 12.84375 17.464844 12.886719 17.464844 12.933594 C 17.554688 12.933594 17.644531 12.933594 17.734375 12.933594 C 17.734375 12.976562 17.734375 13.019531 17.734375 13.066406 C 17.777344 13.066406 17.820312 13.066406 17.867188 13.066406 C 17.867188 13.132812 17.867188 13.199219 17.867188 13.265625 C 17.511719 13.46875 17.511719 13.46875 17.332031 13.460938 C 17.140625 13.371094 16.972656 13.261719 16.800781 13.132812 C 16.800781 13.089844 16.800781 13.046875 16.800781 13 C 16.738281 12.976562 16.738281 12.976562 16.679688 12.949219 C 16.511719 12.855469 16.433594 12.761719 16.332031 12.601562 C 16.332031 12.554688 16.332031 12.511719 16.332031 12.464844 C 16.289062 12.464844 16.246094 12.464844 16.199219 12.464844 C 16.199219 12.402344 16.199219 12.335938 16.199219 12.265625 C 16.132812 12.246094 16.066406 12.222656 16 12.199219 C 15.773438 11.851562 15.636719 11.46875 15.535156 11.066406 C 15.511719 11.042969 15.488281 11.023438 15.464844 11 C 15.339844 10.582031 15.3125 10.171875 15.316406 9.738281 C 15.316406 9.648438 15.316406 9.648438 15.316406 9.558594 C 15.324219 9.160156 15.351562 8.785156 15.464844 8.398438 C 15.480469 8.351562 15.492188 8.304688 15.507812 8.253906 C 15.679688 7.671875 15.976562 7.101562 16.398438 6.667969 C 16.445312 6.667969 16.488281 6.667969 16.535156 6.667969 C 16.554688 6.578125 16.578125 6.492188 16.601562 6.398438 C 16.644531 6.398438 16.6875 6.398438 16.734375 6.398438 C 16.734375 6.355469 16.734375 6.3125 16.734375 6.265625 C 16.84375 6.222656 16.953125 6.179688 17.066406 6.132812 C 17.066406 6.089844 17.066406 6.046875 17.066406 6 C 17.109375 6 17.15625 6 17.199219 6 C 17.199219 5.957031 17.199219 5.910156 17.199219 5.867188 C 17.261719 5.835938 17.324219 5.804688 17.386719 5.773438 C 17.601562 5.671875 17.601562 5.671875 17.800781 5.535156 C 17.867188 5.535156 17.933594 5.535156 18 5.535156 C 18 5.488281 18 5.445312 18 5.398438 C 18.679688 5.160156 19.308594 5.035156 20.035156 5.035156 Z M 20.035156 5.035156 "/>
<path style=" stroke:none;fill-rule:nonzero;fill:rgb(0.392157%,0.392157%,0.392157%);fill-opacity:1;" d="M 16.398438 29.464844 C 16.398438 29.949219 16.398438 30.433594 16.398438 30.933594 C 16.445312 30.933594 16.488281 30.933594 16.535156 30.933594 C 16.550781 30.972656 16.566406 31.011719 16.582031 31.054688 C 16.683594 31.226562 16.761719 31.296875 16.933594 31.398438 C 17.128906 31.425781 17.128906 31.425781 17.335938 31.417969 C 17.40625 31.414062 17.476562 31.414062 17.546875 31.414062 C 17.738281 31.40625 17.738281 31.40625 17.933594 31.332031 C 17.980469 31.199219 17.980469 31.199219 18 31.066406 C 18.042969 31.066406 18.089844 31.066406 18.132812 31.066406 C 18.15625 30.539062 18.175781 30.011719 18.199219 29.464844 C 18.484375 29.464844 18.773438 29.464844 19.066406 29.464844 C 19.066406 31.25 19.066406 33.03125 19.066406 34.867188 C 18.757812 34.867188 18.449219 34.867188 18.132812 34.867188 C 18.140625 34.714844 18.140625 34.714844 18.144531 34.558594 C 18.148438 34.425781 18.152344 34.292969 18.152344 34.160156 C 18.160156 34.058594 18.160156 34.058594 18.164062 33.957031 C 18.171875 33.53125 18.171875 33.53125 17.988281 33.160156 C 17.785156 32.988281 17.671875 32.941406 17.414062 32.910156 C 17.347656 32.898438 17.28125 32.890625 17.214844 32.882812 C 17.167969 32.875 17.117188 32.871094 17.066406 32.867188 C 17.066406 32.910156 17.066406 32.953125 17.066406 33 C 16.890625 33.097656 16.808594 33.132812 16.601562 33.132812 C 16.476562 33.34375 16.449219 33.503906 16.4375 33.746094 C 16.433594 33.84375 16.433594 33.84375 16.429688 33.945312 C 16.429688 34.046875 16.429688 34.046875 16.425781 34.148438 C 16.421875 34.253906 16.421875 34.253906 16.417969 34.359375 C 16.410156 34.527344 16.40625 34.695312 16.398438 34.867188 C 16.113281 34.867188 15.828125 34.867188 15.535156 34.867188 C 15.535156 33.085938 15.535156 31.300781 15.535156 29.464844 C 16 29.398438 16 29.398438 16.398438 29.464844 Z M 16.398438 29.464844 "/>
<path style=" stroke:none;fill-rule:nonzero;fill:rgb(0.392157%,0.392157%,0.392157%);fill-opacity:1;" d="M 19.464844 17.601562 C 19.730469 17.621094 19.996094 17.644531 20.265625 17.667969 C 20.265625 23.34375 20.265625 29.019531 20.265625 34.867188 C 19.734375 34.867188 19.734375 34.867188 19.601562 34.785156 C 19.515625 34.636719 19.507812 34.546875 19.507812 34.375 C 19.507812 34.316406 19.507812 34.253906 19.503906 34.195312 C 19.507812 34.128906 19.507812 34.0625 19.507812 33.996094 C 19.507812 33.925781 19.507812 33.855469 19.503906 33.78125 C 19.503906 33.546875 19.503906 33.3125 19.503906 33.078125 C 19.503906 32.910156 19.503906 32.742188 19.503906 32.574219 C 19.5 32.210938 19.5 31.847656 19.5 31.484375 C 19.5 30.960938 19.496094 30.4375 19.496094 29.910156 C 19.492188 29.0625 19.492188 28.210938 19.488281 27.359375 C 19.488281 26.535156 19.488281 25.707031 19.484375 24.878906 C 19.484375 24.804688 19.484375 24.804688 19.484375 24.726562 C 19.484375 24.472656 19.480469 24.214844 19.480469 23.960938 C 19.476562 21.839844 19.46875 19.71875 19.464844 17.601562 Z M 19.464844 17.601562 "/>
<path style=" stroke:none;fill-rule:nonzero;fill:rgb(12.54902%,12.54902%,12.54902%);fill-opacity:1;" d="M 23 5.535156 C 23 5.578125 23 5.621094 23 5.667969 C 23.035156 5.683594 23.070312 5.695312 23.109375 5.710938 C 23.582031 5.972656 23.875 6.378906 24.199219 6.800781 C 24.132812 6.800781 24.066406 6.800781 24 6.800781 C 23.886719 6.894531 23.886719 6.894531 23.800781 7 C 23.722656 6.9375 23.644531 6.875 23.566406 6.8125 C 23.523438 6.777344 23.480469 6.742188 23.433594 6.707031 C 23.332031 6.601562 23.332031 6.601562 23.332031 6.398438 C 23.289062 6.398438 23.246094 6.398438 23.199219 6.398438 C 23.199219 6.355469 23.199219 6.3125 23.199219 6.265625 C 23.160156 6.246094 23.121094 6.226562 23.082031 6.207031 C 23.035156 6.183594 22.984375 6.160156 22.933594 6.132812 C 22.886719 6.113281 22.839844 6.09375 22.792969 6.070312 C 22.667969 6 22.667969 6 22.535156 5.800781 C 22.488281 5.800781 22.445312 5.800781 22.398438 5.800781 C 22.398438 5.757812 22.398438 5.710938 22.398438 5.667969 C 22.289062 5.644531 22.179688 5.621094 22.066406 5.601562 C 22.066406 5.554688 22.066406 5.511719 22.066406 5.464844 C 22 5.460938 21.933594 5.453125 21.867188 5.445312 C 21.625 5.414062 21.417969 5.339844 21.191406 5.246094 C 20.253906 4.890625 19.0625 5.117188 18.132812 5.398438 C 18.089844 5.398438 18.046875 5.398438 18 5.398438 C 18 5.445312 18 5.488281 18 5.535156 C 17.9375 5.5625 17.875 5.59375 17.8125 5.625 C 17.597656 5.730469 17.597656 5.730469 17.398438 5.867188 C 17.335938 5.867188 17.269531 5.867188 17.199219 5.867188 C 17.199219 5.910156 17.199219 5.953125 17.199219 6 C 17.15625 6 17.113281 6 17.066406 6 C 17.066406 6.042969 17.066406 6.089844 17.066406 6.132812 C 16.957031 6.175781 16.847656 6.222656 16.734375 6.265625 C 16.734375 6.3125 16.734375 6.355469 16.734375 6.398438 C 16.6875 6.421875 16.644531 6.445312 16.601562 6.464844 C 16.578125 6.53125 16.554688 6.597656 16.535156 6.667969 C 16.421875 6.777344 16.3125 6.890625 16.199219 7 C 15.449219 7.925781 15.292969 9.25 15.398438 10.398438 C 15.449219 10.703125 15.496094 10.941406 15.667969 11.199219 C 15.703125 11.296875 15.734375 11.390625 15.761719 11.488281 C 15.84375 11.738281 15.933594 11.96875 16.066406 12.199219 C 16.109375 12.222656 16.15625 12.242188 16.199219 12.265625 C 16.199219 12.332031 16.199219 12.398438 16.199219 12.464844 C 16.242188 12.464844 16.289062 12.464844 16.332031 12.464844 C 16.398438 12.597656 16.464844 12.730469 16.535156 12.867188 C 16.46875 12.953125 16.402344 13.042969 16.332031 13.132812 C 15.847656 12.941406 15.5625 12.359375 15.351562 11.910156 C 15.113281 11.347656 14.890625 10.746094 14.867188 10.132812 C 14.863281 10.054688 14.859375 9.976562 14.855469 9.898438 C 14.8125 8.4375 15.304688 7.15625 16.308594 6.089844 C 18.195312 4.21875 20.808594 4.207031 23 5.535156 Z M 23 5.535156 "/>
<path style=" stroke:none;fill-rule:nonzero;fill:rgb(12.54902%,12.54902%,12.54902%);fill-opacity:1;" d="M 22.347656 8.441406 C 22.714844 8.59375 22.914062 8.839844 23.066406 9.199219 C 23.175781 9.566406 23.140625 9.914062 23 10.265625 C 22.863281 10.488281 22.800781 10.582031 22.550781 10.652344 C 22.5 10.660156 22.449219 10.664062 22.398438 10.667969 C 22.398438 10.710938 22.398438 10.753906 22.398438 10.800781 C 21.554688 10.824219 21.554688 10.824219 21.199219 10.667969 C 21.199219 10.621094 21.199219 10.578125 21.199219 10.535156 C 21.15625 10.515625 21.113281 10.5 21.070312 10.484375 C 20.933594 10.398438 20.933594 10.398438 20.882812 10.257812 C 20.878906 10.21875 20.871094 10.175781 20.867188 10.132812 C 20.824219 10.132812 20.777344 10.132812 20.734375 10.132812 C 20.609375 9.765625 20.609375 9.332031 20.78125 8.984375 C 21.179688 8.445312 21.71875 8.261719 22.347656 8.441406 Z M 22.347656 8.441406 "/>
<path style=" stroke:none;fill-rule:nonzero;fill:rgb(12.54902%,12.54902%,12.54902%);fill-opacity:1;" d="M 20.421875 6.640625 C 20.75 6.777344 20.921875 6.980469 21.078125 7.300781 C 21.199219 7.65625 21.160156 7.988281 21.089844 8.355469 C 20.90625 8.714844 20.644531 8.867188 20.273438 8.996094 C 19.894531 9.097656 19.617188 9.042969 19.265625 8.867188 C 19.265625 8.824219 19.265625 8.777344 19.265625 8.734375 C 19.199219 8.734375 19.132812 8.734375 19.066406 8.734375 C 19.066406 8.667969 19.066406 8.601562 19.066406 8.535156 C 19.023438 8.535156 18.980469 8.535156 18.933594 8.535156 C 18.695312 8.269531 18.699219 7.992188 18.707031 7.652344 C 18.746094 7.371094 18.851562 7.175781 19 6.933594 C 19.066406 6.933594 19.132812 6.933594 19.199219 6.933594 C 19.199219 6.890625 19.199219 6.84375 19.199219 6.800781 C 19.535156 6.5 20.007812 6.535156 20.421875 6.640625 Z M 20.421875 6.640625 "/>
<path style=" stroke:none;fill-rule:nonzero;fill:rgb(11.764706%,11.764706%,11.764706%);fill-opacity:1;" d="M 20.683594 10.386719 C 20.929688 10.558594 21.042969 10.785156 21.132812 11.066406 C 21.195312 11.457031 21.191406 11.8125 21 12.167969 C 20.769531 12.476562 20.496094 12.628906 20.117188 12.691406 C 19.726562 12.714844 19.46875 12.59375 19.132812 12.398438 C 19.132812 12.355469 19.132812 12.3125 19.132812 12.265625 C 19.066406 12.246094 19 12.222656 18.933594 12.199219 C 18.734375 11.847656 18.679688 11.535156 18.734375 11.132812 C 18.785156 10.964844 18.851562 10.824219 18.933594 10.667969 C 18.976562 10.667969 19.019531 10.667969 19.066406 10.667969 C 19.066406 10.621094 19.066406 10.578125 19.066406 10.535156 C 19.109375 10.535156 19.15625 10.535156 19.199219 10.535156 C 19.199219 10.488281 19.199219 10.445312 19.199219 10.398438 C 19.660156 10.191406 20.21875 10.179688 20.683594 10.386719 Z M 20.683594 10.386719 "/>
<path style=" stroke:none;fill-rule:nonzero;fill:rgb(10.980392%,10.980392%,10.980392%);fill-opacity:1;" d="M 17.601562 8.398438 C 18.074219 8.363281 18.535156 8.449219 18.914062 8.761719 C 19.121094 9.011719 19.191406 9.320312 19.226562 9.636719 C 19.175781 10.082031 19.007812 10.382812 18.667969 10.667969 C 18.515625 10.714844 18.515625 10.714844 18.398438 10.734375 C 18.378906 10.753906 18.355469 10.777344 18.332031 10.800781 C 17.941406 10.902344 17.628906 10.878906 17.269531 10.6875 C 17.039062 10.535156 16.894531 10.398438 16.800781 10.132812 C 16.734375 9.675781 16.746094 9.238281 16.984375 8.835938 C 17.105469 8.683594 17.222656 8.605469 17.398438 8.535156 C 17.464844 8.535156 17.53125 8.535156 17.601562 8.535156 C 17.601562 8.488281 17.601562 8.445312 17.601562 8.398438 Z M 17.601562 8.398438 "/>
<path style=" stroke:none;fill-rule:nonzero;fill:rgb(89.803922%,89.803922%,89.803922%);fill-opacity:1;" d="M 22.667969 16.066406 C 22.6875 16.066406 22.710938 16.066406 22.734375 16.066406 C 22.792969 17.507812 22.792969 17.507812 22.289062 18.0625 C 22.210938 18.128906 22.210938 18.128906 22.132812 18.199219 C 22.070312 18.382812 22.058594 18.492188 22.058594 18.683594 C 22.058594 18.769531 22.058594 18.769531 22.058594 18.859375 C 22.058594 18.921875 22.058594 18.988281 22.058594 19.050781 C 22.058594 19.121094 22.054688 19.1875 22.054688 19.257812 C 22.054688 19.484375 22.054688 19.714844 22.054688 19.941406 C 22.054688 20.105469 22.054688 20.269531 22.054688 20.429688 C 22.054688 20.785156 22.050781 21.136719 22.050781 21.488281 C 22.050781 21.996094 22.050781 22.507812 22.046875 23.015625 C 22.046875 23.84375 22.042969 24.671875 22.039062 25.5 C 22.039062 25.574219 22.039062 25.574219 22.039062 25.648438 C 22.039062 26.351562 22.035156 27.054688 22.035156 27.757812 C 22.035156 27.804688 22.035156 27.855469 22.035156 27.90625 C 22.035156 27.980469 22.035156 27.980469 22.035156 28.054688 C 22.03125 28.878906 22.03125 29.703125 22.027344 30.527344 C 22.027344 31.035156 22.023438 31.542969 22.023438 32.050781 C 22.023438 32.441406 22.023438 32.832031 22.019531 33.222656 C 22.019531 33.382812 22.019531 33.539062 22.019531 33.699219 C 22.019531 33.917969 22.019531 34.136719 22.019531 34.355469 C 22.019531 34.449219 22.019531 34.449219 22.019531 34.546875 C 22.011719 35.195312 21.941406 35.738281 21.515625 36.246094 C 21.082031 36.613281 20.550781 36.550781 20.007812 36.542969 C 19.886719 36.542969 19.886719 36.542969 19.757812 36.542969 C 19.496094 36.542969 19.234375 36.539062 18.972656 36.539062 C 18.707031 36.535156 18.445312 36.535156 18.183594 36.53125 C 18.019531 36.53125 17.859375 36.53125 17.695312 36.527344 C 17.300781 36.527344 16.925781 36.542969 16.535156 36.601562 C 16.425781 36.605469 16.320312 36.609375 16.214844 36.609375 C 16.136719 36.609375 16.136719 36.609375 16.050781 36.609375 C 15.996094 36.609375 15.945312 36.609375 15.886719 36.609375 C 15.832031 36.609375 15.777344 36.609375 15.71875 36.609375 C 15.449219 36.609375 15.199219 36.601562 14.933594 36.535156 C 14.933594 36.511719 14.933594 36.488281 14.933594 36.464844 C 15.878906 36.421875 16.824219 36.378906 17.800781 36.332031 C 17.800781 36.3125 17.800781 36.289062 17.800781 36.265625 C 17.878906 36.265625 17.957031 36.265625 18.039062 36.261719 C 18.335938 36.257812 18.632812 36.25 18.929688 36.246094 C 19.058594 36.242188 19.1875 36.242188 19.316406 36.238281 C 19.5 36.234375 19.683594 36.230469 19.871094 36.226562 C 19.925781 36.226562 19.984375 36.226562 20.042969 36.226562 C 20.722656 36.230469 20.722656 36.230469 21.3125 35.960938 C 21.339844 35.929688 21.371094 35.898438 21.398438 35.867188 C 21.445312 35.867188 21.488281 35.867188 21.535156 35.867188 C 21.535156 35.734375 21.535156 35.601562 21.535156 35.464844 C 21.566406 35.566406 21.566406 35.566406 21.601562 35.667969 C 21.644531 35.644531 21.6875 35.621094 21.734375 35.601562 C 21.898438 34.839844 21.808594 33.980469 21.804688 33.207031 C 21.804688 33.046875 21.804688 32.886719 21.804688 32.722656 C 21.804688 32.421875 21.804688 32.121094 21.804688 31.820312 C 21.800781 31.226562 21.800781 30.636719 21.800781 30.042969 C 21.804688 29.976562 21.804688 29.976562 21.804688 29.902344 C 21.804688 29.667969 21.804688 29.433594 21.804688 29.195312 C 21.804688 28.710938 21.804688 28.226562 21.804688 27.742188 C 21.804688 27.667969 21.804688 27.667969 21.804688 27.59375 C 21.804688 26.804688 21.804688 26.015625 21.800781 25.226562 C 21.800781 24.417969 21.800781 23.605469 21.800781 22.792969 C 21.800781 22.292969 21.800781 21.792969 21.800781 21.292969 C 21.796875 20.910156 21.796875 20.527344 21.800781 20.144531 C 21.800781 19.988281 21.800781 19.832031 21.800781 19.675781 C 21.785156 18.34375 21.785156 18.34375 22.132812 17.917969 C 22.21875 17.832031 22.308594 17.75 22.398438 17.667969 C 22.539062 17.328125 22.558594 17 22.570312 16.640625 C 22.589844 16.140625 22.589844 16.140625 22.667969 16.066406 Z M 22.667969 16.066406 "/>
<path style=" stroke:none;fill-rule:nonzero;fill:rgb(11.764706%,11.764706%,11.764706%);fill-opacity:1;" d="M 24.265625 7 C 24.464844 7.230469 24.59375 7.445312 24.707031 7.730469 C 24.734375 7.796875 24.761719 7.863281 24.789062 7.929688 C 25.316406 9.320312 25.070312 10.664062 24.554688 12.015625 C 24.460938 12.214844 24.34375 12.363281 24.199219 12.535156 C 24.160156 12.585938 24.121094 12.636719 24.082031 12.6875 C 23.265625 13.753906 23.265625 13.753906 22.734375 13.933594 C 22.734375 13.84375 22.734375 13.757812 22.734375 13.667969 C 22.777344 13.667969 22.820312 13.667969 22.867188 13.667969 C 22.84375 13.621094 22.824219 13.578125 22.800781 13.535156 C 22.699219 13.566406 22.699219 13.566406 22.601562 13.601562 C 22.644531 13.511719 22.6875 13.425781 22.734375 13.332031 C 22.800781 13.332031 22.867188 13.332031 22.933594 13.332031 C 22.949219 13.292969 22.964844 13.25 22.984375 13.207031 C 23.082031 13.042969 23.160156 13.003906 23.332031 12.933594 C 23.332031 12.890625 23.332031 12.84375 23.332031 12.800781 C 23.378906 12.800781 23.421875 12.800781 23.464844 12.800781 C 23.464844 12.757812 23.464844 12.710938 23.464844 12.667969 C 23.511719 12.667969 23.554688 12.667969 23.601562 12.667969 C 23.621094 12.578125 23.644531 12.492188 23.667969 12.398438 C 23.710938 12.398438 23.753906 12.398438 23.800781 12.398438 C 23.816406 12.339844 23.832031 12.277344 23.851562 12.214844 C 23.933594 12 23.933594 12 24.066406 11.875 C 24.21875 11.710938 24.257812 11.578125 24.300781 11.363281 C 24.332031 11.199219 24.332031 11.199219 24.386719 11.023438 C 24.515625 10.546875 24.550781 10.105469 24.554688 9.617188 C 24.554688 9.558594 24.554688 9.5 24.554688 9.441406 C 24.550781 8.878906 24.4375 8.398438 24.226562 7.878906 C 24.101562 7.585938 24.066406 7.386719 24.066406 7.066406 C 24.132812 7.042969 24.199219 7.023438 24.265625 7 Z M 24.265625 7 "/>
<path style=" stroke:none;fill-rule:nonzero;fill:rgb(82.745099%,82.745099%,82.745099%);fill-opacity:1;" d="M 22.398438 15.933594 C 22.488281 15.957031 22.574219 15.976562 22.667969 16 C 22.617188 17.597656 22.617188 17.597656 22.164062 18.039062 C 21.882812 18.355469 21.867188 18.605469 21.875 19.015625 C 21.875 19.085938 21.875 19.152344 21.875 19.21875 C 21.871094 19.445312 21.875 19.667969 21.875 19.894531 C 21.875 20.054688 21.875 20.214844 21.875 20.375 C 21.871094 20.722656 21.871094 21.070312 21.875 21.414062 C 21.875 21.917969 21.875 22.417969 21.875 22.917969 C 21.871094 23.734375 21.871094 24.550781 21.875 25.363281 C 21.875 26.15625 21.875 26.945312 21.875 27.734375 C 21.875 27.78125 21.875 27.832031 21.875 27.882812 C 21.875 28.363281 21.875 28.847656 21.871094 29.332031 C 21.871094 29.519531 21.871094 29.710938 21.871094 29.898438 C 21.871094 29.992188 21.871094 30.085938 21.871094 30.175781 C 21.871094 30.769531 21.871094 31.359375 21.871094 31.949219 C 21.871094 32.289062 21.871094 32.628906 21.871094 32.96875 C 21.871094 33.125 21.875 33.28125 21.875 33.4375 C 21.878906 34.960938 21.878906 34.960938 21.800781 35.601562 C 21.734375 35.621094 21.667969 35.644531 21.601562 35.667969 C 21.605469 35.621094 21.609375 35.578125 21.613281 35.535156 C 21.6875 34.757812 21.675781 33.980469 21.675781 33.203125 C 21.675781 33.042969 21.679688 32.882812 21.679688 32.722656 C 21.679688 32.375 21.679688 32.03125 21.679688 31.683594 C 21.679688 31.140625 21.683594 30.59375 21.683594 30.046875 C 21.683594 29.859375 21.683594 29.675781 21.683594 29.488281 C 21.683594 29.441406 21.683594 29.394531 21.683594 29.34375 C 21.6875 28.816406 21.6875 28.285156 21.6875 27.753906 C 21.6875 27.703125 21.6875 27.65625 21.691406 27.605469 C 21.691406 26.820312 21.691406 26.035156 21.695312 25.246094 C 21.695312 24.4375 21.695312 23.628906 21.699219 22.820312 C 21.699219 22.324219 21.703125 21.824219 21.703125 21.324219 C 21.703125 20.945312 21.703125 20.5625 21.703125 20.183594 C 21.707031 20.027344 21.707031 19.871094 21.707031 19.714844 C 21.703125 19.5 21.707031 19.285156 21.707031 19.074219 C 21.707031 18.980469 21.707031 18.980469 21.707031 18.886719 C 21.710938 18.441406 21.777344 18.117188 22.070312 17.769531 C 22.199219 17.667969 22.199219 17.667969 22.332031 17.667969 C 22.417969 17.089844 22.40625 16.515625 22.398438 15.933594 Z M 22.398438 15.933594 "/>
<path style=" stroke:none;fill-rule:nonzero;fill:rgb(96.470588%,96.470588%,96.470588%);fill-opacity:1;" d="M 22.355469 8.988281 C 22.535156 9.132812 22.535156 9.132812 22.667969 9.332031 C 22.699219 9.65625 22.699219 9.804688 22.550781 10.089844 C 22.335938 10.339844 22.234375 10.390625 21.910156 10.425781 C 21.621094 10.394531 21.484375 10.320312 21.265625 10.132812 C 21.265625 10.066406 21.265625 10 21.265625 9.933594 C 21.222656 9.933594 21.179688 9.933594 21.132812 9.933594 C 21.105469 9.53125 21.125 9.320312 21.398438 9 C 21.699219 8.773438 22.039062 8.816406 22.355469 8.988281 Z M 22.355469 8.988281 "/>
<path style=" stroke:none;fill-rule:nonzero;fill:rgb(96.470588%,96.470588%,96.470588%);fill-opacity:1;" d="M 18.199219 8.867188 C 18.449219 9 18.574219 9.097656 18.734375 9.332031 C 18.765625 9.679688 18.726562 9.90625 18.535156 10.199219 C 18.339844 10.359375 18.21875 10.398438 17.972656 10.429688 C 17.6875 10.394531 17.550781 10.320312 17.332031 10.132812 C 17.179688 9.875 17.164062 9.632812 17.199219 9.332031 C 17.449219 8.917969 17.726562 8.800781 18.199219 8.867188 Z M 18.199219 8.867188 "/>
<path style=" stroke:none;fill-rule:nonzero;fill:rgb(96.470588%,96.470588%,96.470588%);fill-opacity:1;" d="M 20.132812 10.667969 C 20.378906 10.800781 20.511719 10.898438 20.667969 11.132812 C 20.707031 11.417969 20.695312 11.664062 20.578125 11.929688 C 20.441406 12.097656 20.332031 12.191406 20.113281 12.226562 C 19.648438 12.238281 19.648438 12.238281 19.394531 12.042969 C 19.199219 11.777344 19.175781 11.613281 19.175781 11.289062 C 19.214844 11.027344 19.34375 10.914062 19.535156 10.734375 C 19.742188 10.628906 19.902344 10.648438 20.132812 10.667969 Z M 20.132812 10.667969 "/>
<path style=" stroke:none;fill-rule:nonzero;fill:rgb(97.254902%,97.254902%,97.254902%);fill-opacity:1;" d="M 19.917969 7.042969 C 20.191406 7.042969 20.246094 7.050781 20.472656 7.230469 C 20.511719 7.285156 20.554688 7.34375 20.601562 7.398438 C 20.621094 7.421875 20.644531 7.445312 20.667969 7.464844 C 20.703125 7.792969 20.714844 8.050781 20.542969 8.335938 C 20.304688 8.554688 20.128906 8.550781 19.816406 8.546875 C 19.613281 8.527344 19.492188 8.460938 19.332031 8.332031 C 19.144531 8.050781 19.144531 7.796875 19.199219 7.464844 C 19.363281 7.261719 19.363281 7.261719 19.535156 7.132812 C 19.644531 7.023438 19.765625 7.046875 19.917969 7.042969 Z M 19.917969 7.042969 "/>
<path style=" stroke:none;fill-rule:nonzero;fill:rgb(82.745099%,82.745099%,82.745099%);fill-opacity:1;" d="M 17.734375 18 C 17.933594 18.066406 17.933594 18.066406 18 18.199219 C 18.011719 18.292969 18.015625 18.386719 18.019531 18.480469 C 18.023438 18.539062 18.027344 18.597656 18.027344 18.65625 C 18.03125 18.753906 18.03125 18.753906 18.035156 18.851562 C 18.039062 18.917969 18.042969 18.988281 18.046875 19.058594 C 18.078125 19.894531 18.074219 20.734375 18.074219 21.570312 C 18.074219 21.800781 18.074219 22.03125 18.074219 22.261719 C 18.074219 22.691406 18.070312 23.125 18.070312 23.554688 C 18.070312 24.046875 18.070312 24.539062 18.070312 25.035156 C 18.070312 26.042969 18.066406 27.054688 18.066406 28.066406 C 17.984375 28.066406 17.898438 28.066406 17.8125 28.066406 C 17.5 28.0625 17.1875 28.0625 16.875 28.0625 C 16.738281 28.0625 16.605469 28.0625 16.46875 28.0625 C 16.273438 28.0625 16.082031 28.058594 15.886719 28.058594 C 15.824219 28.058594 15.765625 28.058594 15.703125 28.058594 C 15.332031 28.058594 14.96875 28.085938 14.601562 28.132812 C 14.601562 28.089844 14.601562 28.046875 14.601562 28 C 15.015625 27.890625 15.398438 27.847656 15.828125 27.855469 C 15.914062 27.855469 15.914062 27.855469 16 27.855469 C 16.179688 27.855469 16.359375 27.855469 16.539062 27.859375 C 16.660156 27.859375 16.78125 27.859375 16.90625 27.859375 C 17.203125 27.863281 17.5 27.863281 17.800781 27.867188 C 17.878906 27.707031 17.875 27.605469 17.875 27.425781 C 17.875 27.359375 17.875 27.292969 17.875 27.226562 C 17.875 27.152344 17.875 27.082031 17.875 27.007812 C 17.875 26.933594 17.875 26.855469 17.875 26.777344 C 17.875 26.527344 17.875 26.277344 17.875 26.023438 C 17.875 25.847656 17.875 25.671875 17.875 25.496094 C 17.875 25.128906 17.875 24.757812 17.875 24.390625 C 17.875 23.964844 17.875 23.542969 17.875 23.121094 C 17.875 22.753906 17.875 22.390625 17.875 22.023438 C 17.875 21.808594 17.875 21.589844 17.875 21.371094 C 17.875 20.535156 17.871094 19.699219 17.835938 18.859375 C 17.832031 18.765625 17.832031 18.765625 17.828125 18.667969 C 17.828125 18.609375 17.824219 18.546875 17.820312 18.488281 C 17.820312 18.4375 17.816406 18.386719 17.8125 18.332031 C 17.804688 18.1875 17.804688 18.1875 17.734375 18 Z M 17.734375 18 "/>
<path style=" stroke:none;fill-rule:nonzero;fill:rgb(1.176471%,1.176471%,1.176471%);fill-opacity:1;" d="M 18.601562 13.464844 C 19.027344 13.582031 19.429688 13.621094 19.871094 13.617188 C 19.925781 13.617188 19.984375 13.617188 20.042969 13.617188 C 20.40625 13.617188 20.714844 13.5625 21.066406 13.464844 C 21.269531 13.445312 21.269531 13.445312 21.449219 13.445312 C 21.511719 13.445312 21.570312 13.445312 21.632812 13.441406 C 21.832031 13.472656 21.925781 13.523438 22.066406 13.667969 C 22.066406 13.734375 22.066406 13.796875 22.066406 13.867188 C 21.914062 13.886719 21.757812 13.910156 21.601562 13.933594 C 21.601562 13.976562 21.601562 14.019531 21.601562 14.066406 C 21.277344 14.128906 21.097656 14.136719 20.800781 14 C 20.199219 13.855469 19.429688 13.851562 18.867188 14.132812 C 18.734375 14.136719 18.601562 14.136719 18.464844 14.132812 C 18.464844 14.089844 18.464844 14.046875 18.464844 14 C 18.167969 13.933594 18.167969 13.933594 17.867188 13.867188 C 17.933594 13.601562 17.933594 13.601562 18.082031 13.480469 C 18.304688 13.382812 18.371094 13.398438 18.601562 13.464844 Z M 18.601562 13.464844 "/>
<path style=" stroke:none;fill-rule:nonzero;fill:rgb(0.392157%,0.392157%,0.392157%);fill-opacity:1;" d="M 21.199219 14.601562 C 21.242188 14.621094 21.289062 14.644531 21.332031 14.667969 C 21.332031 14.710938 21.332031 14.753906 21.332031 14.800781 C 20.808594 15.183594 20.226562 15.179688 19.601562 15.132812 C 19.207031 15.0625 18.835938 14.953125 18.464844 14.800781 C 19.101562 14.136719 20.445312 14.140625 21.199219 14.601562 Z M 21.199219 14.601562 "/>
<path style=" stroke:none;fill-rule:nonzero;fill:rgb(0.784314%,0.784314%,0.784314%);fill-opacity:1;" d="M 20.535156 16.398438 C 20.535156 16.445312 20.535156 16.488281 20.535156 16.535156 C 20.621094 16.554688 20.710938 16.578125 20.800781 16.601562 C 20.820312 16.6875 20.84375 16.777344 20.867188 16.867188 C 20.777344 16.886719 20.691406 16.910156 20.601562 16.933594 C 20.601562 16.976562 20.601562 17.019531 20.601562 17.066406 C 20.328125 17.195312 20.113281 17.214844 19.8125 17.207031 C 19.734375 17.207031 19.65625 17.207031 19.578125 17.203125 C 19.519531 17.203125 19.460938 17.203125 19.398438 17.199219 C 19.398438 17.15625 19.398438 17.113281 19.398438 17.066406 C 19.359375 17.058594 19.320312 17.050781 19.277344 17.042969 C 19.132812 17 19.132812 17 18.933594 16.867188 C 18.992188 16.621094 19.046875 16.546875 19.261719 16.414062 C 19.660156 16.265625 20.128906 16.28125 20.535156 16.398438 Z M 20.535156 16.398438 "/>
<path style=" stroke:none;fill-rule:nonzero;fill:rgb(10.980392%,10.980392%,10.980392%);fill-opacity:1;" d="M 22.199219 8.398438 C 22.199219 8.421875 22.199219 8.445312 22.199219 8.464844 C 22.117188 8.472656 22.039062 8.480469 21.953125 8.488281 C 21.636719 8.527344 21.441406 8.652344 21.1875 8.847656 C 21.066406 8.933594 21.066406 8.933594 20.933594 8.933594 C 20.933594 8.976562 20.933594 9.019531 20.933594 9.066406 C 21 9.089844 21.066406 9.109375 21.132812 9.132812 C 21.089844 9.222656 21.046875 9.308594 21 9.398438 C 20.976562 9.355469 20.957031 9.3125 20.933594 9.265625 C 20.78125 9.453125 20.78125 9.453125 20.800781 9.667969 C 20.84375 9.667969 20.886719 9.667969 20.933594 9.667969 C 20.910156 9.578125 20.890625 9.492188 20.867188 9.398438 C 20.933594 9.445312 21 9.488281 21.066406 9.535156 C 21.042969 9.621094 21.023438 9.710938 21 9.800781 C 21.042969 9.800781 21.089844 9.800781 21.132812 9.800781 C 21.132812 9.84375 21.132812 9.886719 21.132812 9.933594 C 21.175781 9.933594 21.222656 9.933594 21.265625 9.933594 C 21.28125 9.972656 21.300781 10.015625 21.316406 10.058594 C 21.421875 10.234375 21.472656 10.265625 21.667969 10.332031 C 21.757812 10.34375 21.847656 10.351562 21.9375 10.359375 C 22.199219 10.398438 22.199219 10.398438 22.332031 10.527344 C 22.398438 10.667969 22.398438 10.667969 22.398438 10.800781 C 21.554688 10.824219 21.554688 10.824219 21.199219 10.667969 C 21.199219 10.621094 21.199219 10.578125 21.199219 10.535156 C 21.15625 10.515625 21.113281 10.5 21.070312 10.484375 C 20.933594 10.398438 20.933594 10.398438 20.882812 10.257812 C 20.878906 10.21875 20.871094 10.175781 20.867188 10.132812 C 20.824219 10.132812 20.777344 10.132812 20.734375 10.132812 C 20.609375 9.765625 20.609375 9.332031 20.78125 8.984375 C 21.144531 8.492188 21.609375 8.320312 22.199219 8.398438 Z M 22.199219 8.398438 "/>
<path style=" stroke:none;fill-rule:nonzero;fill:rgb(90.588236%,90.588236%,90.588236%);fill-opacity:1;" d="M 15.894531 27.710938 C 15.96875 27.710938 16.039062 27.710938 16.117188 27.710938 C 16.648438 27.714844 16.648438 27.714844 16.800781 27.867188 C 16.753906 27.867188 16.710938 27.871094 16.664062 27.871094 C 16.453125 27.878906 16.246094 27.886719 16.039062 27.894531 C 15.964844 27.898438 15.894531 27.902344 15.820312 27.902344 C 15.410156 27.921875 15.007812 27.949219 14.601562 28 C 14.601562 28.042969 14.601562 28.089844 14.601562 28.132812 C 14.664062 28.15625 14.730469 28.175781 14.800781 28.199219 C 14.667969 28.222656 14.535156 28.242188 14.398438 28.265625 C 14.378906 28.375 14.355469 28.488281 14.332031 28.601562 C 14.289062 28.554688 14.246094 28.511719 14.199219 28.464844 C 13.984375 28.925781 13.988281 29.425781 13.992188 29.921875 C 13.992188 29.980469 13.992188 30.035156 13.992188 30.09375 C 13.992188 30.277344 13.992188 30.464844 13.992188 30.648438 C 13.992188 30.777344 13.992188 30.90625 13.992188 31.035156 C 13.992188 31.304688 13.992188 31.578125 13.992188 31.847656 C 13.992188 32.191406 13.992188 32.539062 13.992188 32.882812 C 13.992188 33.152344 13.992188 33.417969 13.992188 33.683594 C 13.992188 33.8125 13.992188 33.9375 13.992188 34.066406 C 13.992188 34.246094 13.992188 34.421875 13.992188 34.601562 C 13.992188 34.652344 13.992188 34.707031 13.992188 34.757812 C 13.992188 35.109375 14.023438 35.453125 14.066406 35.800781 C 14.023438 35.777344 13.980469 35.757812 13.933594 35.734375 C 13.855469 35.363281 13.855469 34.992188 13.855469 34.613281 C 13.855469 34.550781 13.855469 34.484375 13.855469 34.417969 C 13.851562 34.210938 13.851562 34 13.851562 33.789062 C 13.851562 33.71875 13.851562 33.644531 13.851562 33.570312 C 13.847656 33.191406 13.847656 32.808594 13.847656 32.429688 C 13.847656 32.035156 13.84375 31.644531 13.839844 31.25 C 13.839844 30.949219 13.839844 30.648438 13.839844 30.34375 C 13.839844 30.199219 13.835938 30.054688 13.835938 29.910156 C 13.835938 29.707031 13.835938 29.503906 13.835938 29.304688 C 13.835938 29.242188 13.832031 29.183594 13.832031 29.121094 C 13.835938 28.769531 13.875 28.59375 14.132812 28.332031 C 14.15625 28.285156 14.179688 28.238281 14.203125 28.1875 C 14.335938 27.929688 14.628906 27.859375 14.886719 27.773438 C 15.222656 27.699219 15.554688 27.707031 15.894531 27.710938 Z M 15.894531 27.710938 "/>
<path style=" stroke:none;fill-rule:nonzero;fill:rgb(89.803922%,89.803922%,89.803922%);fill-opacity:1;" d="M 17.734375 18.132812 C 17.777344 18.15625 17.820312 18.175781 17.867188 18.199219 C 17.929688 19.34375 17.945312 20.480469 17.945312 21.625 C 17.945312 21.757812 17.945312 21.890625 17.945312 22.023438 C 17.945312 22.433594 17.945312 22.84375 17.945312 23.257812 C 17.945312 23.679688 17.945312 24.101562 17.949219 24.527344 C 17.949219 24.9375 17.949219 25.347656 17.949219 25.757812 C 17.949219 25.929688 17.949219 26.105469 17.949219 26.277344 C 17.949219 26.519531 17.949219 26.757812 17.949219 27 C 17.949219 27.070312 17.949219 27.144531 17.949219 27.21875 C 17.949219 27.28125 17.949219 27.347656 17.949219 27.414062 C 17.949219 27.472656 17.949219 27.53125 17.949219 27.589844 C 17.933594 27.734375 17.933594 27.734375 17.800781 27.933594 C 17.625 27.949219 17.464844 27.953125 17.292969 27.945312 C 17.246094 27.945312 17.199219 27.945312 17.148438 27.941406 C 17.03125 27.941406 16.917969 27.9375 16.800781 27.933594 C 16.800781 27.910156 16.800781 27.890625 16.800781 27.867188 C 17.109375 27.867188 17.414062 27.867188 17.734375 27.867188 C 17.789062 27.429688 17.808594 27.007812 17.808594 26.570312 C 17.808594 26.503906 17.808594 26.4375 17.808594 26.367188 C 17.808594 26.148438 17.808594 25.925781 17.808594 25.707031 C 17.808594 25.554688 17.808594 25.398438 17.808594 25.246094 C 17.808594 24.921875 17.808594 24.601562 17.808594 24.277344 C 17.808594 23.867188 17.808594 23.457031 17.808594 23.042969 C 17.808594 22.726562 17.808594 22.410156 17.808594 22.089844 C 17.808594 21.9375 17.808594 21.789062 17.808594 21.636719 C 17.8125 20.597656 17.8125 20.597656 17.746094 19.558594 C 17.730469 19.359375 17.730469 19.160156 17.734375 18.957031 C 17.738281 18.742188 17.734375 18.605469 17.667969 18.398438 C 17.695312 18.253906 17.695312 18.253906 17.734375 18.132812 Z M 17.734375 18.132812 "/>
<path style=" stroke:none;fill-rule:nonzero;fill:rgb(85.882354%,85.882354%,85.882354%);fill-opacity:1;" d="M 14.132812 35.867188 C 14.292969 35.894531 14.378906 35.910156 14.492188 36.035156 C 14.625 36.15625 14.695312 36.164062 14.875 36.179688 C 14.953125 36.183594 14.953125 36.183594 15.035156 36.191406 C 15.300781 36.207031 15.5625 36.214844 15.828125 36.222656 C 15.914062 36.222656 15.914062 36.222656 16 36.226562 C 16.179688 36.230469 16.359375 36.234375 16.539062 36.238281 C 16.660156 36.242188 16.78125 36.242188 16.90625 36.246094 C 17.203125 36.253906 17.5 36.261719 17.800781 36.265625 C 17.832031 36.332031 17.832031 36.332031 17.867188 36.398438 C 17.140625 36.453125 16.414062 36.472656 15.683594 36.476562 C 15.5625 36.476562 15.5625 36.476562 15.4375 36.476562 C 15.359375 36.476562 15.285156 36.476562 15.207031 36.476562 C 15.136719 36.476562 15.066406 36.476562 14.996094 36.476562 C 14.792969 36.464844 14.601562 36.4375 14.398438 36.398438 C 14.398438 36.355469 14.398438 36.3125 14.398438 36.265625 C 14.355469 36.265625 14.3125 36.265625 14.265625 36.265625 C 14.265625 36.199219 14.265625 36.132812 14.265625 36.066406 C 14.222656 36.066406 14.179688 36.066406 14.132812 36.066406 C 14.132812 36 14.132812 35.933594 14.132812 35.867188 Z M 14.132812 35.867188 "/>
<path style=" stroke:none;fill-rule:nonzero;fill:rgb(14.901961%,14.901961%,14.901961%);fill-opacity:1;" d="M 24.265625 7 C 24.464844 7.230469 24.59375 7.445312 24.707031 7.730469 C 24.75 7.828125 24.75 7.828125 24.789062 7.929688 C 25.027344 8.558594 25.027344 8.558594 24.933594 8.800781 C 24.890625 8.734375 24.84375 8.667969 24.800781 8.601562 C 24.71875 8.59375 24.71875 8.59375 24.640625 8.585938 C 24.582031 8.570312 24.523438 8.550781 24.464844 8.535156 C 24.375 8.355469 24.308594 8.199219 24.246094 8.011719 C 24.226562 7.964844 24.210938 7.914062 24.191406 7.867188 C 24.09375 7.585938 24.066406 7.371094 24.066406 7.066406 C 24.132812 7.042969 24.199219 7.023438 24.265625 7 Z M 24.265625 7 "/>
<path style=" stroke:none;fill-rule:nonzero;fill:rgb(13.333334%,13.333334%,13.333334%);fill-opacity:1;" d="M 15.597656 28.992188 C 15.660156 28.992188 15.726562 28.992188 15.792969 28.992188 C 15.863281 28.992188 15.929688 28.992188 16 28.992188 C 16.101562 28.992188 16.101562 28.992188 16.207031 28.992188 C 16.273438 28.992188 16.335938 28.992188 16.402344 28.992188 C 16.464844 28.992188 16.523438 28.992188 16.585938 28.992188 C 16.734375 29 16.734375 29 16.867188 29.066406 C 16.867188 29.507812 16.867188 29.945312 16.867188 30.398438 C 16.84375 30.398438 16.824219 30.398438 16.800781 30.398438 C 16.796875 30.324219 16.792969 30.253906 16.789062 30.175781 C 16.78125 30.078125 16.777344 29.980469 16.769531 29.882812 C 16.769531 29.835938 16.765625 29.785156 16.761719 29.734375 C 16.75 29.503906 16.722656 29.296875 16.667969 29.066406 C 16.226562 29.066406 15.785156 29.066406 15.332031 29.066406 C 15.273438 29.363281 15.253906 29.628906 15.253906 29.925781 C 15.253906 29.980469 15.25 30.03125 15.25 30.085938 C 15.25 30.257812 15.246094 30.429688 15.246094 30.597656 C 15.246094 30.71875 15.242188 30.835938 15.242188 30.957031 C 15.238281 31.269531 15.234375 31.582031 15.230469 31.894531 C 15.226562 32.214844 15.222656 32.535156 15.21875 32.855469 C 15.214844 33.480469 15.207031 34.105469 15.199219 34.734375 C 15.179688 34.734375 15.15625 34.734375 15.132812 34.734375 C 15.132812 32.863281 15.132812 30.992188 15.132812 29.066406 C 15.296875 28.984375 15.410156 28.992188 15.597656 28.992188 Z M 15.597656 28.992188 "/>
<path style=" stroke:none;fill-rule:nonzero;fill:rgb(83.92157%,83.92157%,83.92157%);fill-opacity:1;" d="M 20.800781 3.332031 C 20.84375 3.351562 20.886719 3.371094 20.933594 3.390625 C 21.128906 3.464844 21.320312 3.511719 21.523438 3.5625 C 21.757812 3.625 21.976562 3.710938 22.199219 3.800781 C 22.199219 3.820312 22.199219 3.84375 22.199219 3.867188 C 21.878906 3.835938 21.5625 3.792969 21.246094 3.730469 C 20.734375 3.644531 20.230469 3.652344 19.714844 3.660156 C 19.621094 3.660156 19.523438 3.660156 19.429688 3.660156 C 19.195312 3.660156 18.964844 3.664062 18.734375 3.667969 C 18.753906 3.621094 18.777344 3.578125 18.800781 3.535156 C 19.066406 3.472656 19.320312 3.457031 19.589844 3.460938 C 19.660156 3.460938 19.730469 3.460938 19.804688 3.460938 C 19.914062 3.460938 19.914062 3.460938 20.023438 3.460938 C 20.097656 3.460938 20.175781 3.464844 20.25 3.464844 C 20.433594 3.464844 20.617188 3.464844 20.800781 3.464844 C 20.800781 3.421875 20.800781 3.378906 20.800781 3.332031 Z M 20.800781 3.332031 "/>
<path style=" stroke:none;fill-rule:nonzero;fill:rgb(1.568628%,1.568628%,1.568628%);fill-opacity:1;" d="M 19.199219 15.535156 C 19.640625 15.535156 20.078125 15.535156 20.535156 15.535156 C 20.535156 15.664062 20.535156 15.796875 20.535156 15.933594 C 20.445312 15.957031 20.355469 15.976562 20.265625 16 C 20.265625 15.957031 20.265625 15.910156 20.265625 15.867188 C 19.9375 15.910156 19.605469 15.953125 19.265625 16 C 19.246094 15.847656 19.222656 15.691406 19.199219 15.535156 Z M 19.199219 15.535156 "/>
<path style=" stroke:none;fill-rule:nonzero;fill:rgb(9.411765%,9.411765%,9.411765%);fill-opacity:1;" d="M 17.601562 8.398438 C 18.171875 8.390625 18.171875 8.390625 18.398438 8.464844 C 18.398438 8.601562 18.398438 8.601562 18.320312 8.707031 C 18.175781 8.820312 18.085938 8.832031 17.902344 8.847656 C 17.851562 8.851562 17.800781 8.855469 17.75 8.859375 C 17.613281 8.867188 17.472656 8.867188 17.332031 8.867188 C 17.3125 8.910156 17.289062 8.953125 17.265625 9 C 17.265625 8.957031 17.265625 8.910156 17.265625 8.867188 C 17.199219 8.84375 17.132812 8.824219 17.066406 8.800781 C 17.226562 8.605469 17.355469 8.566406 17.601562 8.535156 C 17.601562 8.488281 17.601562 8.445312 17.601562 8.398438 Z M 17.601562 8.398438 "/>
<path style=" stroke:none;fill-rule:nonzero;fill:rgb(20.392157%,20.392157%,20.392157%);fill-opacity:1;" d="M 17.066406 32.867188 C 17.242188 32.867188 17.417969 32.867188 17.601562 32.867188 C 17.601562 32.910156 17.601562 32.953125 17.601562 33 C 17.644531 33.023438 17.6875 33.042969 17.734375 33.066406 C 17.753906 33.109375 17.777344 33.15625 17.800781 33.199219 C 17.777344 33.265625 17.757812 33.332031 17.734375 33.398438 C 17.777344 33.398438 17.820312 33.398438 17.867188 33.398438 C 17.84375 33.992188 17.824219 34.589844 17.800781 35.199219 C 17.777344 35.199219 17.757812 35.199219 17.734375 35.199219 C 17.734375 35.152344 17.730469 35.101562 17.730469 35.050781 C 17.726562 34.828125 17.722656 34.601562 17.714844 34.378906 C 17.714844 34.300781 17.714844 34.222656 17.714844 34.144531 C 17.710938 34.070312 17.710938 33.996094 17.707031 33.917969 C 17.707031 33.847656 17.703125 33.78125 17.703125 33.710938 C 17.683594 33.527344 17.683594 33.527344 17.539062 33.414062 C 17.402344 33.335938 17.289062 33.292969 17.132812 33.265625 C 17.113281 33.132812 17.089844 33.003906 17.066406 32.867188 Z M 17.066406 32.867188 "/>
<path style=" stroke:none;fill-rule:nonzero;fill:rgb(90.588236%,90.588236%,90.588236%);fill-opacity:1;" d="M 20.734375 3.332031 C 20.734375 3.378906 20.734375 3.421875 20.734375 3.464844 C 20.660156 3.46875 20.589844 3.472656 20.515625 3.476562 C 20.25 3.488281 19.984375 3.503906 19.71875 3.515625 C 19.605469 3.523438 19.488281 3.527344 19.375 3.53125 C 19.207031 3.539062 19.042969 3.550781 18.878906 3.558594 C 18.828125 3.558594 18.773438 3.5625 18.722656 3.566406 C 18.472656 3.578125 18.34375 3.59375 18.132812 3.734375 C 17.988281 3.707031 17.988281 3.707031 17.867188 3.667969 C 18.117188 3.417969 18.402344 3.421875 18.734375 3.398438 C 18.808594 3.394531 18.882812 3.386719 18.960938 3.382812 C 19.550781 3.335938 20.140625 3.324219 20.734375 3.332031 Z M 20.734375 3.332031 "/>
<path style=" stroke:none;fill-rule:nonzero;fill:rgb(87.843138%,87.843138%,87.843138%);fill-opacity:1;" d="M 21.535156 35.464844 C 21.554688 35.53125 21.578125 35.597656 21.601562 35.667969 C 21.644531 35.667969 21.6875 35.667969 21.734375 35.667969 C 21.714844 35.917969 21.679688 36.046875 21.523438 36.25 C 21.238281 36.472656 21 36.546875 20.636719 36.507812 C 20.582031 36.496094 20.523438 36.480469 20.464844 36.464844 C 20.464844 36.445312 20.464844 36.421875 20.464844 36.398438 C 20.664062 36.355469 20.863281 36.3125 21.066406 36.265625 C 21.066406 36.222656 21.066406 36.179688 21.066406 36.132812 C 21.109375 36.113281 21.152344 36.09375 21.195312 36.074219 C 21.34375 36.011719 21.34375 36.011719 21.398438 35.867188 C 21.445312 35.867188 21.488281 35.867188 21.535156 35.867188 C 21.535156 35.734375 21.535156 35.601562 21.535156 35.464844 Z M 21.535156 35.464844 "/>
<path style=" stroke:none;fill-rule:nonzero;fill:rgb(7.058824%,7.058824%,7.058824%);fill-opacity:1;" d="M 22.199219 8.398438 C 22.199219 8.421875 22.199219 8.445312 22.199219 8.464844 C 22.117188 8.472656 22.039062 8.480469 21.953125 8.488281 C 21.636719 8.527344 21.441406 8.652344 21.1875 8.847656 C 21.066406 8.933594 21.066406 8.933594 20.933594 8.933594 C 20.933594 8.976562 20.933594 9.019531 20.933594 9.066406 C 21 9.089844 21.066406 9.109375 21.132812 9.132812 C 21.089844 9.222656 21.046875 9.308594 21 9.398438 C 20.976562 9.355469 20.957031 9.3125 20.933594 9.265625 C 20.785156 9.488281 20.785156 9.554688 20.792969 9.8125 C 20.792969 9.871094 20.792969 9.933594 20.796875 9.996094 C 20.796875 10.039062 20.796875 10.085938 20.800781 10.132812 C 20.605469 9.785156 20.632812 9.472656 20.726562 9.097656 C 21.007812 8.515625 21.597656 8.320312 22.199219 8.398438 Z M 22.199219 8.398438 "/>
<path style=" stroke:none;fill-rule:nonzero;fill:rgb(84.313726%,84.313726%,84.313726%);fill-opacity:1;" d="M 16 4.734375 C 16.042969 4.753906 16.089844 4.777344 16.132812 4.800781 C 16.0625 4.871094 15.992188 4.941406 15.921875 5.011719 C 15.855469 5.078125 15.855469 5.078125 15.789062 5.144531 C 15.695312 5.238281 15.597656 5.335938 15.5 5.429688 C 15.105469 5.816406 15.105469 5.816406 14.800781 6.265625 C 14.757812 6.265625 14.710938 6.265625 14.667969 6.265625 C 14.742188 5.777344 15.246094 5.316406 15.601562 5 C 15.730469 4.90625 15.863281 4.820312 16 4.734375 Z M 16 4.734375 "/>
<path style=" stroke:none;fill-rule:nonzero;fill:rgb(91.764706%,91.764706%,91.764706%);fill-opacity:1;" d="M 13.734375 8 C 13.777344 8 13.820312 8 13.867188 8 C 13.867188 8.089844 13.867188 8.175781 13.867188 8.265625 C 13.910156 8.265625 13.953125 8.265625 14 8.265625 C 13.976562 9.035156 13.957031 9.808594 13.933594 10.601562 C 13.910156 10.601562 13.890625 10.601562 13.867188 10.601562 C 13.867188 9.917969 13.867188 9.234375 13.867188 8.535156 C 13.824219 8.535156 13.777344 8.535156 13.734375 8.535156 C 13.734375 8.355469 13.734375 8.179688 13.734375 8 Z M 13.734375 8 "/>
<path style=" stroke:none;fill-rule:nonzero;fill:rgb(89.803922%,89.803922%,89.803922%);fill-opacity:1;" d="M 13.667969 8.601562 C 13.6875 8.601562 13.710938 8.601562 13.734375 8.601562 C 13.734375 8.660156 13.738281 8.71875 13.738281 8.78125 C 13.746094 9.003906 13.75 9.226562 13.757812 9.449219 C 13.761719 9.546875 13.765625 9.640625 13.765625 9.738281 C 13.78125 10.25 13.800781 10.757812 13.867188 11.265625 C 13.800781 11.300781 13.800781 11.300781 13.734375 11.332031 C 13.648438 11.074219 13.660156 10.828125 13.660156 10.558594 C 13.660156 10.503906 13.660156 10.449219 13.660156 10.390625 C 13.660156 10.210938 13.660156 10.03125 13.664062 9.855469 C 13.664062 9.734375 13.664062 9.613281 13.664062 9.492188 C 13.664062 9.195312 13.664062 8.898438 13.667969 8.601562 Z M 13.667969 8.601562 "/>
<path style=" stroke:none;fill-rule:nonzero;fill:rgb(14.509805%,14.509805%,14.509805%);fill-opacity:1;" d="M 18.667969 8.601562 C 18.734375 8.800781 18.734375 8.800781 18.667969 9 C 18.644531 9.089844 18.621094 9.175781 18.601562 9.265625 C 18.550781 9.203125 18.550781 9.203125 18.5 9.140625 C 18.273438 8.949219 18.089844 8.925781 17.800781 8.867188 C 17.800781 8.84375 17.800781 8.824219 17.800781 8.800781 C 17.933594 8.777344 18.0625 8.757812 18.199219 8.734375 C 18.199219 8.6875 18.199219 8.644531 18.199219 8.601562 C 18.40625 8.53125 18.46875 8.523438 18.667969 8.601562 Z M 18.667969 8.601562 "/>
<path style=" stroke:none;fill-rule:nonzero;fill:rgb(16.470589%,16.470589%,16.470589%);fill-opacity:1;" d="M 17.199219 9.800781 C 17.242188 9.867188 17.289062 9.933594 17.332031 10 C 17.421875 10.089844 17.507812 10.179688 17.601562 10.265625 C 17.644531 10.3125 17.6875 10.355469 17.734375 10.398438 C 17.601562 10.601562 17.601562 10.601562 17.4375 10.660156 C 17.265625 10.667969 17.265625 10.667969 17.144531 10.570312 C 17.121094 10.535156 17.09375 10.503906 17.066406 10.464844 C 17.089844 10.429688 17.109375 10.394531 17.132812 10.359375 C 17.214844 10.164062 17.210938 10.007812 17.199219 9.800781 Z M 17.199219 9.800781 "/>
<path style=" stroke:none;fill-rule:nonzero;fill:rgb(89.803922%,89.803922%,89.803922%);fill-opacity:1;" d="M 25.535156 6.535156 C 25.578125 6.535156 25.621094 6.535156 25.667969 6.535156 C 25.882812 7.160156 25.882812 7.160156 25.933594 7.464844 C 25.976562 7.464844 26.019531 7.464844 26.066406 7.464844 C 26.066406 7.644531 26.066406 7.820312 26.066406 8 C 25.917969 7.746094 25.867188 7.484375 25.800781 7.199219 C 25.757812 7.289062 25.710938 7.375 25.667969 7.464844 C 25.644531 7.355469 25.621094 7.246094 25.601562 7.132812 C 25.554688 7.132812 25.511719 7.132812 25.464844 7.132812 C 25.445312 7 25.421875 6.871094 25.398438 6.734375 C 25.464844 6.800781 25.53125 6.867188 25.601562 6.933594 C 25.578125 6.800781 25.554688 6.667969 25.535156 6.535156 Z M 25.535156 6.535156 "/>
<path style=" stroke:none;fill-rule:nonzero;fill:rgb(26.274511%,26.274511%,26.274511%);fill-opacity:1;" d="M 15.265625 29 C 15.507812 29 15.75 28.996094 15.992188 28.996094 C 16.09375 28.996094 16.09375 28.996094 16.199219 28.996094 C 16.265625 28.992188 16.332031 28.992188 16.398438 28.992188 C 16.492188 28.992188 16.492188 28.992188 16.582031 28.992188 C 16.734375 29 16.734375 29 16.867188 29.066406 C 16.867188 29.507812 16.867188 29.945312 16.867188 30.398438 C 16.84375 30.398438 16.824219 30.398438 16.800781 30.398438 C 16.796875 30.324219 16.792969 30.253906 16.789062 30.175781 C 16.78125 30.078125 16.777344 29.980469 16.769531 29.882812 C 16.769531 29.835938 16.765625 29.785156 16.761719 29.734375 C 16.75 29.503906 16.722656 29.296875 16.667969 29.066406 C 16.203125 29.066406 15.742188 29.066406 15.265625 29.066406 C 15.265625 29.042969 15.265625 29.023438 15.265625 29 Z M 15.265625 29 "/>
<path style=" stroke:none;fill-rule:nonzero;fill:rgb(89.803922%,89.803922%,89.803922%);fill-opacity:1;" d="M 16.332031 4.265625 C 16.398438 4.289062 16.464844 4.3125 16.535156 4.332031 C 16.445312 4.421875 16.355469 4.507812 16.265625 4.601562 C 16.355469 4.578125 16.441406 4.554688 16.535156 4.535156 C 16.359375 4.796875 16.230469 4.785156 15.933594 4.867188 C 15.773438 4.949219 15.621094 5.039062 15.464844 5.132812 C 15.464844 5.066406 15.464844 5 15.464844 4.933594 C 15.527344 4.90625 15.585938 4.882812 15.648438 4.855469 C 15.878906 4.726562 15.980469 4.605469 16.132812 4.398438 C 16.199219 4.355469 16.265625 4.3125 16.332031 4.265625 Z M 16.332031 4.265625 "/>
<path style=" stroke:none;fill-rule:nonzero;fill:rgb(13.333334%,13.333334%,13.333334%);fill-opacity:1;" d="M 17.046875 33.023438 C 17.097656 33.039062 17.148438 33.050781 17.199219 33.066406 C 17.179688 33.132812 17.15625 33.199219 17.132812 33.265625 C 17.222656 33.289062 17.308594 33.3125 17.398438 33.332031 C 17.335938 33.351562 17.273438 33.371094 17.207031 33.390625 C 16.996094 33.453125 16.996094 33.453125 16.867188 33.601562 C 16.84375 33.511719 16.824219 33.425781 16.800781 33.332031 C 16.757812 33.332031 16.710938 33.332031 16.667969 33.332031 C 16.667969 33.265625 16.667969 33.203125 16.667969 33.132812 C 16.867188 33 16.867188 33 17.046875 33.023438 Z M 17.046875 33.023438 "/>
<path style=" stroke:none;fill-rule:nonzero;fill:rgb(87.843138%,87.843138%,87.843138%);fill-opacity:1;" d="M 17.398438 17.199219 C 17.421875 17.199219 17.445312 17.199219 17.464844 17.199219 C 17.464844 17.332031 17.464844 17.464844 17.464844 17.601562 C 17.511719 17.601562 17.554688 17.601562 17.601562 17.601562 C 17.621094 17.664062 17.644531 17.730469 17.667969 17.800781 C 17.753906 17.890625 17.839844 17.980469 17.933594 18.066406 C 17.800781 18.089844 17.667969 18.109375 17.535156 18.132812 C 17.402344 17.972656 17.332031 17.855469 17.335938 17.644531 C 17.351562 17.496094 17.375 17.347656 17.398438 17.199219 Z M 17.398438 17.199219 "/>
<path style=" stroke:none;fill-rule:nonzero;fill:rgb(77.254903%,77.254903%,77.254903%);fill-opacity:1;" d="M 17.535156 33.332031 C 17.535156 33.355469 17.535156 33.378906 17.535156 33.398438 C 17.46875 33.417969 17.40625 33.4375 17.339844 33.457031 C 17.128906 33.519531 17.128906 33.519531 17 33.667969 C 16.976562 33.828125 16.976562 33.828125 16.972656 34.015625 C 16.96875 34.082031 16.96875 34.152344 16.964844 34.222656 C 16.960938 34.296875 16.960938 34.367188 16.957031 34.441406 C 16.957031 34.515625 16.953125 34.585938 16.949219 34.660156 C 16.945312 34.839844 16.9375 35.019531 16.933594 35.199219 C 16.910156 35.199219 16.890625 35.199219 16.867188 35.199219 C 16.859375 34.9375 16.855469 34.679688 16.851562 34.417969 C 16.847656 34.34375 16.84375 34.269531 16.84375 34.191406 C 16.84375 34.121094 16.839844 34.050781 16.839844 33.976562 C 16.839844 33.910156 16.835938 33.84375 16.835938 33.777344 C 16.90625 33.371094 17.160156 33.300781 17.535156 33.332031 Z M 17.535156 33.332031 "/>
<path style=" stroke:none;fill-rule:nonzero;fill:rgb(6.666667%,6.666667%,6.666667%);fill-opacity:1;" d="M 19.570312 5.648438 C 19.675781 5.648438 19.675781 5.648438 19.785156 5.648438 C 19.859375 5.648438 19.933594 5.648438 20.007812 5.648438 C 20.082031 5.648438 20.15625 5.648438 20.234375 5.648438 C 20.304688 5.648438 20.375 5.648438 20.445312 5.648438 C 20.511719 5.648438 20.574219 5.648438 20.640625 5.648438 C 20.800781 5.667969 20.800781 5.667969 20.933594 5.800781 C 20.800781 5.824219 20.667969 5.847656 20.535156 5.867188 C 20.511719 5.84375 20.488281 5.824219 20.464844 5.800781 C 20.351562 5.792969 20.238281 5.792969 20.125 5.792969 C 20.054688 5.792969 19.988281 5.792969 19.914062 5.792969 C 19.84375 5.792969 19.769531 5.796875 19.695312 5.796875 C 19.621094 5.796875 19.550781 5.796875 19.476562 5.796875 C 19.292969 5.796875 19.113281 5.796875 18.933594 5.800781 C 19.152344 5.667969 19.316406 5.648438 19.570312 5.648438 Z M 19.570312 5.648438 "/>
<path style=" stroke:none;fill-rule:nonzero;fill:rgb(90.588236%,90.588236%,90.588236%);fill-opacity:1;" d="M 15.265625 5.132812 C 15.332031 5.15625 15.398438 5.175781 15.464844 5.199219 C 15.421875 5.199219 15.378906 5.199219 15.332031 5.199219 C 15.320312 5.242188 15.308594 5.289062 15.296875 5.332031 C 15.15625 5.621094 14.949219 5.835938 14.734375 6.066406 C 14.710938 6.023438 14.6875 5.980469 14.667969 5.933594 C 14.730469 5.792969 14.730469 5.792969 14.800781 5.667969 C 14.84375 5.667969 14.886719 5.667969 14.933594 5.667969 C 14.9375 5.628906 14.945312 5.589844 14.949219 5.550781 C 15.015625 5.359375 15.117188 5.265625 15.265625 5.132812 Z M 15.265625 5.132812 "/>
<path style=" stroke:none;fill-rule:nonzero;fill:rgb(18.82353%,18.82353%,18.82353%);fill-opacity:1;" d="M 17.867188 14 C 17.933594 14.023438 18 14.042969 18.066406 14.066406 C 18.132812 14.222656 18.140625 14.308594 18.097656 14.476562 C 18.078125 14.523438 18.058594 14.570312 18.039062 14.617188 C 18.019531 14.664062 18 14.710938 17.980469 14.757812 C 17.964844 14.792969 17.949219 14.832031 17.933594 14.867188 C 17.898438 14.730469 17.867188 14.59375 17.835938 14.457031 C 17.804688 14.320312 17.804688 14.320312 17.667969 14.199219 C 17.734375 14.132812 17.796875 14.066406 17.867188 14 Z M 17.867188 14 "/>
<path style=" stroke:none;fill-rule:nonzero;fill:rgb(91.764706%,91.764706%,91.764706%);fill-opacity:1;" d="M 25.667969 12.601562 C 25.667969 12.863281 25.585938 13.03125 25.464844 13.265625 C 25.320312 13.394531 25.320312 13.394531 25.199219 13.464844 C 25.222656 13.105469 25.445312 12.871094 25.667969 12.601562 Z M 25.667969 12.601562 "/>
<path style=" stroke:none;fill-rule:nonzero;fill:rgb(89.019608%,89.019608%,89.019608%);fill-opacity:1;" d="M 13.867188 11.332031 C 13.933594 11.433594 13.933594 11.433594 14 11.535156 C 14.023438 11.554688 14.042969 11.578125 14.066406 11.601562 C 14.089844 11.511719 14.109375 11.425781 14.132812 11.332031 C 14.175781 11.554688 14.222656 11.773438 14.265625 12 C 14.222656 12 14.179688 12 14.132812 12 C 14.113281 12.042969 14.089844 12.089844 14.066406 12.132812 C 14.066406 12.066406 14.066406 12 14.066406 11.933594 C 14 11.910156 13.933594 11.890625 13.867188 11.867188 C 13.867188 11.691406 13.867188 11.515625 13.867188 11.332031 Z M 13.867188 11.332031 "/>
<path style=" stroke:none;fill-rule:nonzero;fill:rgb(9.803922%,9.803922%,9.803922%);fill-opacity:1;" d="M 21.398438 4.867188 C 21.511719 4.886719 21.621094 4.90625 21.734375 4.933594 C 21.667969 5.03125 21.667969 5.03125 21.601562 5.132812 C 21.6875 5.199219 21.777344 5.265625 21.867188 5.332031 C 21.84375 5.378906 21.824219 5.421875 21.800781 5.464844 C 21.644531 5.402344 21.492188 5.335938 21.332031 5.265625 C 21.332031 5.15625 21.332031 5.042969 21.332031 4.933594 C 21.355469 4.910156 21.378906 4.890625 21.398438 4.867188 Z M 21.398438 4.867188 "/>
<path style=" stroke:none;fill-rule:nonzero;fill:rgb(89.803922%,89.803922%,89.803922%);fill-opacity:1;" d="M 14.199219 6.667969 C 14.265625 6.871094 14.265625 6.988281 14.199219 7.191406 C 14.175781 7.261719 14.175781 7.261719 14.152344 7.335938 C 14.136719 7.382812 14.121094 7.433594 14.105469 7.484375 C 14.089844 7.53125 14.070312 7.582031 14.054688 7.632812 C 14.015625 7.757812 13.972656 7.878906 13.933594 8 C 13.792969 7.507812 13.988281 7.105469 14.199219 6.667969 Z M 14.199219 6.667969 "/>
<path style=" stroke:none;fill-rule:nonzero;fill:rgb(13.725491%,13.725491%,13.725491%);fill-opacity:1;" d="M 17.535156 8.734375 C 17.578125 8.800781 17.621094 8.867188 17.667969 8.933594 C 17.613281 8.972656 17.5625 9.015625 17.507812 9.058594 C 17.335938 9.191406 17.335938 9.191406 17.199219 9.332031 C 17.160156 9.148438 17.132812 8.988281 17.132812 8.800781 C 17.199219 8.820312 17.265625 8.84375 17.332031 8.867188 C 17.398438 8.824219 17.464844 8.777344 17.535156 8.734375 Z M 17.535156 8.734375 "/>
<path style=" stroke:none;fill-rule:nonzero;fill:rgb(90.196079%,90.196079%,90.196079%);fill-opacity:1;" d="M 24.800781 13.800781 C 24.84375 13.820312 24.886719 13.84375 24.933594 13.867188 C 24.773438 14.082031 24.652344 14.234375 24.398438 14.332031 C 24.398438 14.289062 24.398438 14.246094 24.398438 14.199219 C 24.355469 14.179688 24.3125 14.15625 24.265625 14.132812 C 24.3125 14.132812 24.355469 14.132812 24.398438 14.132812 C 24.398438 14.046875 24.398438 13.957031 24.398438 13.867188 C 24.445312 13.867188 24.488281 13.867188 24.535156 13.867188 C 24.535156 13.933594 24.535156 14 24.535156 14.066406 C 24.578125 14.066406 24.621094 14.066406 24.667969 14.066406 C 24.667969 14 24.667969 13.933594 24.667969 13.867188 C 24.710938 13.84375 24.753906 13.824219 24.800781 13.800781 Z M 24.800781 13.800781 "/>
<path style=" stroke:none;fill-rule:nonzero;fill:rgb(92.156863%,92.156863%,92.156863%);fill-opacity:1;" d="M 26 11.464844 C 26.042969 11.464844 26.089844 11.464844 26.132812 11.464844 C 26.042969 12.144531 26.042969 12.144531 25.859375 12.378906 C 25.816406 12.40625 25.777344 12.4375 25.734375 12.464844 C 25.777344 12.230469 25.835938 12.007812 25.902344 11.777344 C 25.921875 11.71875 25.941406 11.660156 25.957031 11.601562 C 25.972656 11.554688 25.984375 11.511719 26 11.464844 Z M 26 11.464844 "/>
<path style=" stroke:none;fill-rule:nonzero;fill:rgb(13.725491%,13.725491%,13.725491%);fill-opacity:1;" d="M 15.332031 10.667969 C 15.390625 10.832031 15.410156 10.90625 15.347656 11.074219 C 15.265625 11.199219 15.265625 11.199219 15.132812 11.332031 C 15.082031 11.148438 15.082031 11.148438 15.066406 10.933594 C 15.195312 10.773438 15.195312 10.773438 15.332031 10.667969 Z M 15.332031 10.667969 "/>
<path style=" stroke:none;fill-rule:nonzero;fill:rgb(8.627451%,8.627451%,8.627451%);fill-opacity:1;" d="M 18.667969 8.667969 C 18.800781 8.667969 18.800781 8.667969 18.914062 8.75 C 18.941406 8.789062 18.96875 8.828125 19 8.867188 C 18.980469 9.011719 18.980469 9.011719 18.933594 9.132812 C 18.867188 9.132812 18.800781 9.132812 18.734375 9.132812 C 18.664062 9.011719 18.664062 9.011719 18.601562 8.867188 C 18.621094 8.800781 18.644531 8.734375 18.667969 8.667969 Z M 18.667969 8.667969 "/>
<path style=" stroke:none;fill-rule:nonzero;fill:rgb(83.137256%,83.137256%,83.137256%);fill-opacity:1;" d="M 21.199219 3.601562 C 21.585938 3.574219 21.84375 3.648438 22.199219 3.800781 C 22.199219 3.820312 22.199219 3.84375 22.199219 3.867188 C 21.847656 3.835938 21.53125 3.792969 21.199219 3.667969 C 21.199219 3.644531 21.199219 3.621094 21.199219 3.601562 Z M 21.199219 3.601562 "/>
<path style=" stroke:none;fill-rule:nonzero;fill:rgb(8.627451%,8.627451%,8.627451%);fill-opacity:1;" d="M 23.464844 6.464844 C 23.667969 6.464844 23.667969 6.464844 23.785156 6.546875 C 23.867188 6.667969 23.867188 6.667969 23.847656 6.847656 C 23.832031 6.898438 23.816406 6.949219 23.800781 7 C 23.632812 6.847656 23.632812 6.847656 23.464844 6.667969 C 23.464844 6.601562 23.464844 6.535156 23.464844 6.464844 Z M 23.464844 6.464844 "/>
<path style=" stroke:none;fill-rule:nonzero;fill:rgb(83.92157%,83.92157%,83.92157%);fill-opacity:1;" d="M 17.800781 3.800781 C 17.800781 3.84375 17.800781 3.886719 17.800781 3.933594 C 17.703125 3.980469 17.609375 4.027344 17.511719 4.070312 C 17.433594 4.109375 17.433594 4.109375 17.351562 4.148438 C 17.199219 4.199219 17.199219 4.199219 17 4.132812 C 17.210938 3.878906 17.476562 3.800781 17.800781 3.800781 Z M 17.800781 3.800781 "/>
<path style=" stroke:none;fill-rule:nonzero;fill:rgb(87.450981%,87.450981%,87.450981%);fill-opacity:1;" d="M 14.535156 28 C 14.554688 28.042969 14.578125 28.089844 14.601562 28.132812 C 14.664062 28.15625 14.730469 28.175781 14.800781 28.199219 C 14.667969 28.222656 14.535156 28.242188 14.398438 28.265625 C 14.378906 28.375 14.355469 28.488281 14.332031 28.601562 C 14.265625 28.554688 14.203125 28.511719 14.132812 28.464844 C 14.15625 28.402344 14.175781 28.335938 14.199219 28.265625 C 14.242188 28.265625 14.289062 28.265625 14.332031 28.265625 C 14.332031 28.222656 14.332031 28.179688 14.332031 28.132812 C 14.398438 28.089844 14.464844 28.046875 14.535156 28 Z M 14.535156 28 "/>
<path style=" stroke:none;fill-rule:nonzero;fill:rgb(83.529413%,83.529413%,83.529413%);fill-opacity:1;" d="M 16.398438 14.867188 C 16.554688 14.910156 16.707031 14.953125 16.867188 15 C 16.886719 15.132812 16.910156 15.265625 16.933594 15.398438 C 16.882812 15.359375 16.832031 15.316406 16.777344 15.273438 C 16.601562 15.128906 16.601562 15.128906 16.398438 15 C 16.398438 14.957031 16.398438 14.910156 16.398438 14.867188 Z M 16.398438 14.867188 "/>
<path style=" stroke:none;fill-rule:nonzero;fill:rgb(92.941177%,92.941177%,92.941177%);fill-opacity:1;" d="M 23.667969 14.867188 C 23.667969 15.066406 23.667969 15.066406 23.507812 15.242188 C 23.332031 15.398438 23.332031 15.398438 23.199219 15.464844 C 23.199219 15.378906 23.199219 15.289062 23.199219 15.199219 C 23.300781 15.101562 23.300781 15.101562 23.433594 15.015625 C 23.476562 14.988281 23.519531 14.960938 23.566406 14.929688 C 23.597656 14.910156 23.632812 14.886719 23.667969 14.867188 Z M 23.667969 14.867188 "/>
<path style=" stroke:none;fill-rule:nonzero;fill:rgb(15.294118%,15.294118%,15.294118%);fill-opacity:1;" d="M 21.066406 15 C 21.109375 15 21.15625 15 21.199219 15 C 21.199219 15.042969 21.199219 15.089844 21.199219 15.132812 C 21.289062 15.175781 21.375 15.222656 21.464844 15.265625 C 21.355469 15.3125 21.246094 15.355469 21.132812 15.398438 C 21.132812 15.355469 21.132812 15.3125 21.132812 15.265625 C 21.066406 15.265625 21 15.265625 20.933594 15.265625 C 20.976562 15.179688 21.019531 15.089844 21.066406 15 Z M 21.066406 15 "/>
<path style=" stroke:none;fill-rule:nonzero;fill:rgb(88.627452%,88.627452%,88.627452%);fill-opacity:1;" d="M 15.933594 14.667969 C 16.007812 14.683594 16.007812 14.683594 16.085938 14.699219 C 16.269531 14.738281 16.269531 14.738281 16.464844 14.734375 C 16.53125 14.753906 16.597656 14.777344 16.667969 14.800781 C 16.667969 14.84375 16.667969 14.886719 16.667969 14.933594 C 16.523438 14.984375 16.523438 14.984375 16.332031 15 C 16.113281 14.875 16.113281 14.875 15.933594 14.734375 C 15.933594 14.710938 15.933594 14.6875 15.933594 14.667969 Z M 15.933594 14.667969 "/>
<path style=" stroke:none;fill-rule:nonzero;fill:rgb(9.803922%,9.803922%,9.803922%);fill-opacity:1;" d="M 22.734375 5.667969 C 22.867188 5.667969 22.996094 5.667969 23.132812 5.667969 C 23.132812 5.734375 23.132812 5.796875 23.132812 5.867188 C 23.046875 5.867188 22.957031 5.867188 22.867188 5.867188 C 22.84375 5.933594 22.824219 6 22.800781 6.066406 C 22.757812 6.042969 22.710938 6.023438 22.667969 6 C 22.6875 5.890625 22.710938 5.78125 22.734375 5.667969 Z M 22.734375 5.667969 "/>
<path style=" stroke:none;fill-rule:nonzero;fill:rgb(84.705883%,84.705883%,84.705883%);fill-opacity:1;" d="M 23.132812 4.265625 C 23.386719 4.300781 23.542969 4.359375 23.734375 4.535156 C 23.734375 4.578125 23.734375 4.621094 23.734375 4.667969 C 23.296875 4.539062 23.296875 4.539062 23.132812 4.332031 C 23.132812 4.3125 23.132812 4.289062 23.132812 4.265625 Z M 23.132812 4.265625 "/>
<path style=" stroke:none;fill-rule:nonzero;fill:rgb(88.627452%,88.627452%,88.627452%);fill-opacity:1;" d="M 16.933594 3.933594 C 17 3.957031 17.066406 3.976562 17.132812 4 C 17.113281 4.128906 17.113281 4.128906 17.066406 4.265625 C 17 4.289062 16.933594 4.3125 16.867188 4.332031 C 16.867188 4.289062 16.867188 4.246094 16.867188 4.199219 C 16.757812 4.222656 16.648438 4.242188 16.535156 4.265625 C 16.585938 4.222656 16.640625 4.179688 16.695312 4.136719 C 16.816406 4.039062 16.816406 4.039062 16.933594 3.933594 Z M 16.933594 3.933594 "/>
<path style=" stroke:none;fill-rule:nonzero;fill:rgb(18.82353%,18.82353%,18.82353%);fill-opacity:1;" d="M 19.734375 6.867188 C 19.976562 6.855469 19.976562 6.855469 20.199219 6.867188 C 20.132812 6.898438 20.132812 6.898438 20.066406 6.933594 C 20.066406 6.976562 20.066406 7.019531 20.066406 7.066406 C 19.914062 7.066406 19.757812 7.066406 19.601562 7.066406 C 19.644531 7 19.6875 6.933594 19.734375 6.867188 Z M 19.734375 6.867188 "/>
<path style=" stroke:none;fill-rule:nonzero;fill:rgb(23.529412%,23.529412%,23.529412%);fill-opacity:1;" d="M 19.265625 10.734375 C 19.3125 10.753906 19.355469 10.777344 19.398438 10.800781 C 19.378906 10.84375 19.359375 10.890625 19.335938 10.9375 C 19.257812 11.15625 19.226562 11.367188 19.199219 11.601562 C 19.179688 11.601562 19.15625 11.601562 19.132812 11.601562 C 19.121094 11.273438 19.117188 11.03125 19.265625 10.734375 Z M 19.265625 10.734375 "/>
<path style=" stroke:none;fill-rule:nonzero;fill:rgb(87.843138%,87.843138%,87.843138%);fill-opacity:1;" d="M 13.734375 8 C 13.777344 8 13.820312 8 13.867188 8 C 13.886719 8.152344 13.910156 8.308594 13.933594 8.464844 C 13.867188 8.488281 13.800781 8.511719 13.734375 8.535156 C 13.734375 8.355469 13.734375 8.179688 13.734375 8 Z M 13.734375 8 "/>
<path style=" stroke:none;fill-rule:nonzero;fill:rgb(83.529413%,83.529413%,83.529413%);fill-opacity:1;" d="M 14.601562 6.332031 C 14.667969 6.535156 14.667969 6.535156 14.570312 6.746094 C 14.519531 6.839844 14.519531 6.839844 14.464844 6.933594 C 14.421875 6.933594 14.378906 6.933594 14.332031 6.933594 C 14.367188 6.679688 14.433594 6.527344 14.601562 6.332031 Z M 14.601562 6.332031 "/>
<path style=" stroke:none;fill-rule:nonzero;fill:rgb(86.666667%,86.666667%,86.666667%);fill-opacity:1;" d="M 22.332031 17.601562 C 22.378906 17.621094 22.421875 17.644531 22.464844 17.667969 C 22.320312 17.816406 22.167969 17.945312 22 18.066406 C 21.957031 18.042969 21.910156 18.023438 21.867188 18 C 22.019531 17.867188 22.175781 17.734375 22.332031 17.601562 Z M 22.332031 17.601562 "/>
</g>
</svg>
