<?xml version="1.0" encoding="UTF-8"?>
<svg xmlns="http://www.w3.org/2000/svg" xmlns:xlink="http://www.w3.org/1999/xlink" width="67px" height="67px" viewBox="0 0 67 67" version="1.1">
<g id="surface1">
<path style=" stroke:none;fill-rule:nonzero;fill:rgb(99.215686%,99.215686%,99.215686%);fill-opacity:1;" d="M 0 0 C 22.109375 0 44.21875 0 67 0 C 67 22.109375 67 44.21875 67 67 C 44.890625 67 22.78125 67 0 67 C 0 44.890625 0 22.78125 0 0 Z M 0 0 "/>
<path style=" stroke:none;fill-rule:nonzero;fill:rgb(2.745098%,2.745098%,2.745098%);fill-opacity:1;" d="M 19.550781 20.328125 C 19.652344 20.339844 19.757812 20.351562 19.863281 20.359375 C 20.636719 20.449219 21.382812 20.601562 22.121094 20.847656 C 22.023438 21.363281 21.664062 21.652344 21.25 21.949219 C 20.65625 22.359375 20.042969 22.722656 19.390625 23.03125 C 19.359375 23.0625 19.328125 23.089844 19.300781 23.121094 C 19.117188 23.125 18.933594 23.125 18.753906 23.121094 C 18.867188 22.445312 19.523438 21.984375 20.027344 21.574219 C 20.058594 21.515625 20.085938 21.453125 20.117188 21.394531 C 19.964844 21.351562 19.816406 21.308594 19.664062 21.265625 C 19.578125 21.246094 19.492188 21.222656 19.40625 21.195312 C 19.261719 21.160156 19.261719 21.160156 19.117188 21.121094 C 19.003906 21.085938 18.894531 21.054688 18.777344 21.019531 C 16.550781 20.472656 13.929688 21.304688 12.003906 22.414062 C 11.917969 22.46875 11.832031 22.519531 11.742188 22.574219 C 11.652344 22.632812 11.5625 22.6875 11.46875 22.742188 C 10.089844 23.613281 8.675781 24.871094 8.273438 26.507812 C 7.867188 28.464844 8.410156 30.308594 9.46875 31.953125 C 10.015625 32.734375 10.625 33.457031 11.378906 34.046875 C 11.457031 34.113281 11.535156 34.179688 11.617188 34.25 C 12.121094 34.675781 12.613281 35.019531 13.199219 35.320312 C 13.308594 35.382812 13.417969 35.449219 13.523438 35.515625 C 13.808594 35.667969 14.074219 35.78125 14.378906 35.886719 C 14.566406 35.957031 14.742188 36.042969 14.921875 36.128906 C 15.835938 36.539062 16.835938 36.789062 17.820312 36.925781 C 18.023438 36.960938 18.023438 36.960938 18.207031 37.050781 C 18.453125 37.085938 18.699219 37.117188 18.945312 37.148438 C 19.015625 37.15625 19.082031 37.164062 19.152344 37.171875 C 19.324219 37.191406 19.492188 37.210938 19.664062 37.230469 C 19.664062 37.261719 19.664062 37.292969 19.664062 37.324219 C 15.664062 37.378906 15.664062 37.378906 14.109375 37.050781 C 14.007812 37.03125 14.007812 37.03125 13.90625 37.011719 C 11.855469 36.605469 10.039062 35.753906 8.375 34.5 C 8.238281 34.410156 8.238281 34.410156 8.101562 34.320312 C 8.101562 34.257812 8.101562 34.199219 8.101562 34.136719 C 8.011719 34.105469 7.921875 34.078125 7.828125 34.046875 C 7.308594 33.492188 6.863281 32.871094 6.464844 32.226562 C 6.402344 32.128906 6.402344 32.128906 6.339844 32.035156 C 5.75 31.050781 5.578125 30.027344 5.585938 28.890625 C 5.585938 28.773438 5.589844 28.652344 5.589844 28.53125 C 5.636719 26.515625 6.472656 24.773438 7.925781 23.371094 C 8.898438 22.492188 9.984375 21.800781 11.195312 21.300781 C 11.332031 21.246094 11.332031 21.246094 11.472656 21.1875 C 12.582031 20.734375 13.742188 20.457031 14.929688 20.300781 C 15.007812 20.289062 15.082031 20.28125 15.164062 20.269531 C 16.617188 20.113281 18.097656 20.175781 19.550781 20.328125 Z M 19.550781 20.328125 "/>
<path style=" stroke:none;fill-rule:nonzero;fill:rgb(2.745098%,2.745098%,2.745098%);fill-opacity:1;" d="M 40.328125 20.210938 C 40.480469 20.363281 40.4375 20.546875 40.441406 20.753906 C 40.425781 21.699219 39.996094 22.464844 39.59375 23.296875 C 39.433594 23.628906 39.285156 23.964844 39.144531 24.304688 C 39.121094 24.363281 39.09375 24.417969 39.070312 24.476562 C 38.273438 26.355469 37.585938 28.289062 37.582031 30.351562 C 37.582031 30.421875 37.582031 30.492188 37.582031 30.5625 C 37.578125 30.710938 37.578125 30.859375 37.578125 31.003906 C 37.578125 31.230469 37.578125 31.453125 37.574219 31.675781 C 37.574219 31.820312 37.574219 31.964844 37.574219 32.109375 C 37.574219 32.175781 37.574219 32.242188 37.574219 32.308594 C 37.574219 32.847656 37.609375 33.332031 38.003906 33.722656 C 38.089844 33.785156 38.175781 33.851562 38.269531 33.914062 C 38.652344 34.210938 38.921875 34.4375 39.144531 34.867188 C 39.199219 34.96875 39.199219 34.96875 39.257812 35.070312 C 39.472656 35.851562 39.269531 36.476562 38.980469 37.214844 C 38.800781 37.6875 38.769531 38.089844 38.78125 38.597656 C 39.109375 38.65625 39.441406 38.71875 39.78125 38.78125 C 39.839844 38.570312 39.902344 38.359375 39.964844 38.144531 C 40.328125 38.144531 40.328125 38.144531 40.484375 38.253906 C 40.773438 38.574219 40.910156 38.789062 40.90625 39.230469 C 40.898438 39.351562 40.890625 39.476562 40.875 39.597656 C 40.933594 39.597656 40.992188 39.597656 41.054688 39.597656 C 41.226562 39.882812 41.257812 40.089844 41.238281 40.417969 C 41.386719 40.480469 41.539062 40.539062 41.691406 40.601562 C 41.65625 41.035156 41.476562 41.324219 41.148438 41.601562 C 40.597656 41.9375 40.0625 42.210938 39.417969 42.238281 C 39.402344 42.351562 39.390625 42.464844 39.378906 42.582031 C 39.355469 42.769531 39.332031 42.953125 39.28125 43.136719 C 39.089844 43.957031 39.085938 45.011719 39.507812 45.75 C 39.558594 45.824219 39.609375 45.894531 39.660156 45.972656 C 39.78125 46.152344 39.78125 46.152344 39.78125 46.425781 C 39.546875 46.464844 39.546875 46.464844 39.234375 46.425781 C 38.835938 46.132812 38.5625 45.808594 38.414062 45.335938 C 38.398438 45.070312 38.398438 45.070312 38.40625 44.804688 C 38.40625 44.714844 38.40625 44.628906 38.410156 44.535156 C 38.410156 44.46875 38.414062 44.402344 38.414062 44.332031 C 38.359375 44.324219 38.304688 44.3125 38.25 44.304688 C 37.945312 44.207031 37.847656 44.050781 37.683594 43.78125 C 37.484375 43.175781 37.566406 42.503906 37.597656 41.875 C 37.527344 41.851562 37.457031 41.828125 37.386719 41.804688 C 37.136719 41.691406 37.011719 41.59375 36.835938 41.386719 C 36.785156 41.332031 36.738281 41.277344 36.691406 41.222656 C 36.59375 41.054688 36.59375 41.054688 36.613281 40.859375 C 36.6875 40.691406 36.6875 40.691406 36.867188 40.601562 C 36.945312 40.367188 37.003906 40.132812 37.0625 39.894531 C 37.085938 39.828125 37.113281 39.761719 37.140625 39.691406 C 37.230469 39.660156 37.320312 39.628906 37.414062 39.597656 C 37.183594 38.964844 36.894531 38.363281 36.585938 37.761719 C 36.496094 37.585938 36.410156 37.410156 36.320312 37.230469 C 36.269531 37.128906 36.21875 37.027344 36.164062 36.921875 C 36.023438 36.523438 36.007812 36.191406 36.015625 35.777344 C 36.015625 35.707031 36.011719 35.636719 36.011719 35.5625 C 36.015625 35.082031 36.09375 34.746094 36.320312 34.320312 C 36.40625 34.246094 36.488281 34.167969 36.574219 34.089844 C 36.640625 34.015625 36.707031 33.941406 36.777344 33.863281 C 36.742188 33.445312 36.644531 33.046875 36.546875 32.636719 C 36.359375 31.777344 36.375 30.914062 36.382812 30.039062 C 36.382812 29.761719 36.382812 29.484375 36.382812 29.207031 C 36.386719 28.253906 36.421875 27.339844 36.59375 26.398438 C 36.613281 26.28125 36.628906 26.164062 36.648438 26.042969 C 37.007812 23.992188 37.980469 21.691406 39.605469 20.324219 C 39.855469 20.160156 40.039062 20.152344 40.328125 20.210938 Z M 40.328125 20.210938 "/>
<path style=" stroke:none;fill-rule:nonzero;fill:rgb(3.529412%,3.529412%,3.529412%);fill-opacity:1;" d="M 21.183594 30.363281 C 21.757812 30.808594 22.175781 31.347656 22.394531 32.042969 C 22.488281 32.882812 22.511719 33.78125 22.03125 34.5 C 21.992188 34.5625 21.953125 34.628906 21.917969 34.691406 C 21.570312 35.21875 21.125 35.492188 20.574219 35.777344 C 20.519531 35.808594 20.46875 35.84375 20.414062 35.878906 C 19.761719 36.128906 18.714844 36.054688 18.0625 35.820312 C 17.175781 35.382812 16.632812 34.695312 16.285156 33.785156 C 16.0625 33.015625 16.121094 32.269531 16.476562 31.546875 C 16.765625 31.027344 17.074219 30.648438 17.570312 30.3125 C 17.625 30.277344 17.683594 30.238281 17.742188 30.199219 C 18.757812 29.574219 20.222656 29.714844 21.183594 30.363281 Z M 21.183594 30.363281 "/>
<path style=" stroke:none;fill-rule:nonzero;fill:rgb(3.137255%,3.137255%,3.137255%);fill-opacity:1;" d="M 33.136719 30.40625 C 33.480469 30.75 33.496094 31.304688 33.527344 31.777344 C 33.648438 32.929688 34.152344 34.304688 34.886719 35.207031 C 35.046875 35.410156 35.046875 35.410156 35.023438 35.621094 C 35.003906 35.671875 34.980469 35.722656 34.957031 35.777344 C 34.234375 35.828125 33.683594 35.640625 33.109375 35.203125 C 32.828125 34.921875 32.675781 34.667969 32.5 34.320312 C 32.453125 34.378906 32.40625 34.441406 32.359375 34.503906 C 31.796875 35.222656 31.167969 35.960938 30.222656 36.140625 C 29.546875 36.199219 28.957031 36.199219 28.402344 35.777344 C 28.136719 35.515625 27.871094 35.242188 27.839844 34.859375 C 27.832031 33.605469 28.207031 32.871094 29.085938 31.96875 C 29.539062 31.535156 29.984375 31.15625 30.585938 30.949219 C 30.691406 30.90625 30.792969 30.863281 30.898438 30.820312 C 31.59375 30.5625 32.394531 30.347656 33.136719 30.40625 Z M 33.136719 30.40625 "/>
<path style=" stroke:none;fill-rule:nonzero;fill:rgb(3.921569%,3.921569%,3.921569%);fill-opacity:1;" d="M 55.933594 30.324219 C 56.421875 30.601562 56.785156 30.964844 56.988281 31.496094 C 56.988281 31.585938 56.988281 31.675781 56.988281 31.769531 C 57.082031 31.730469 57.179688 31.691406 57.28125 31.652344 C 57.410156 31.601562 57.539062 31.546875 57.667969 31.496094 C 57.765625 31.457031 57.765625 31.457031 57.859375 31.417969 C 58.316406 31.242188 58.679688 31.179688 59.171875 31.222656 C 59.261719 31.3125 59.261719 31.3125 59.351562 31.40625 C 59.335938 31.886719 59.242188 32.160156 58.898438 32.5 C 58.03125 33.085938 57.15625 33.175781 56.125 33.160156 C 55.9375 33.160156 55.75 33.15625 55.5625 33.15625 C 54.648438 33.148438 54.648438 33.148438 54.4375 33.042969 C 54.222656 33.039062 54.003906 33.039062 53.789062 33.039062 C 53.671875 33.039062 53.554688 33.039062 53.433594 33.042969 C 53.300781 33.042969 53.300781 33.042969 53.164062 33.042969 C 53.117188 33.589844 53.117188 33.589844 53.289062 34.097656 C 53.660156 34.300781 54.019531 34.273438 54.4375 34.226562 C 54.621094 34.171875 54.804688 34.109375 54.984375 34.046875 C 55.324219 34.023438 55.324219 34.023438 55.621094 34.046875 C 55.679688 34.105469 55.742188 34.167969 55.804688 34.226562 C 55.785156 34.707031 55.699219 34.988281 55.347656 35.320312 C 54.851562 35.695312 54.34375 35.753906 53.730469 35.730469 C 53.148438 35.640625 52.726562 35.378906 52.347656 34.929688 C 51.980469 34.402344 51.980469 34.402344 51.980469 34.046875 C 51.917969 34.046875 51.859375 34.046875 51.796875 34.046875 C 51.722656 32.941406 51.8125 32.160156 52.53125 31.265625 C 53.398438 30.328125 54.699219 29.746094 55.933594 30.324219 Z M 55.933594 30.324219 "/>
<path style=" stroke:none;fill-rule:nonzero;fill:rgb(3.137255%,3.137255%,3.137255%);fill-opacity:1;" d="M 48.757812 30.621094 C 49.296875 31.027344 49.578125 31.445312 49.800781 32.082031 C 49.832031 32.171875 49.863281 32.257812 49.894531 32.351562 C 49.921875 32.429688 49.949219 32.507812 49.976562 32.589844 C 50.011719 32.683594 50.042969 32.777344 50.078125 32.875 C 50.28125 33.53125 50.371094 34.144531 50.363281 34.832031 C 50.363281 34.941406 50.363281 34.941406 50.367188 35.054688 C 50.363281 35.664062 50.304688 36.210938 49.886719 36.6875 C 49.589844 36.675781 49.589844 36.675781 49.25 36.59375 C 48.886719 36.171875 48.816406 35.796875 48.753906 35.265625 C 48.617188 34.300781 48.378906 33.316406 47.570312 32.691406 C 47.34375 32.574219 47.34375 32.574219 47.113281 32.589844 C 46.40625 32.867188 46.203125 33.351562 45.90625 34.023438 C 45.796875 34.300781 45.699219 34.582031 45.605469 34.867188 C 45.488281 34.867188 45.367188 34.867188 45.242188 34.867188 C 44.894531 34.222656 44.871094 33.582031 45.03125 32.871094 C 45.371094 31.828125 46.003906 31.175781 46.972656 30.679688 C 47.558594 30.453125 48.179688 30.3125 48.757812 30.621094 Z M 48.757812 30.621094 "/>
<path style=" stroke:none;fill-rule:nonzero;fill:rgb(2.352941%,2.352941%,2.352941%);fill-opacity:1;" d="M 27.21875 30.769531 C 27.46875 30.980469 27.566406 31.15625 27.601562 31.492188 C 27.613281 31.992188 27.613281 31.992188 27.476562 32.230469 C 27.308594 32.316406 27.308594 32.316406 27.09375 32.304688 C 26.855469 32.226562 26.855469 32.226562 26.636719 32.082031 C 26.332031 31.917969 26.105469 31.933594 25.761719 31.953125 C 25.425781 32.460938 25.328125 32.882812 25.261719 33.484375 C 25.15625 34.277344 25.035156 34.949219 24.550781 35.605469 C 24.234375 35.824219 24.046875 35.832031 23.667969 35.777344 C 23.445312 35.441406 23.476562 35.308594 23.496094 34.910156 C 23.5 34.792969 23.507812 34.675781 23.511719 34.550781 C 23.519531 34.367188 23.527344 34.179688 23.539062 33.992188 C 23.59375 33.210938 23.59375 33.210938 23.3125 32.5 C 23.097656 32.261719 23.097656 32.261719 22.871094 32.066406 C 22.59375 31.789062 22.417969 31.492188 22.367188 31.101562 C 22.375 30.929688 22.386719 30.757812 22.394531 30.585938 C 22.597656 30.523438 22.597656 30.523438 22.847656 30.496094 C 23.035156 30.625 23.035156 30.625 23.214844 30.804688 C 23.476562 31.070312 23.648438 31.214844 24.03125 31.222656 C 24.28125 31.101562 24.28125 31.101562 24.523438 30.921875 C 25.429688 30.3125 26.269531 30.210938 27.21875 30.769531 Z M 27.21875 30.769531 "/>
<path style=" stroke:none;fill-rule:nonzero;fill:rgb(3.921569%,3.921569%,3.921569%);fill-opacity:1;" d="M 42.238281 29.859375 C 42.460938 30.074219 42.511719 30.203125 42.546875 30.515625 C 42.546875 30.628906 42.546875 30.742188 42.550781 30.859375 C 42.550781 30.921875 42.550781 30.980469 42.550781 31.042969 C 42.554688 31.238281 42.558594 31.433594 42.558594 31.628906 C 42.558594 31.882812 42.5625 32.140625 42.566406 32.394531 C 42.566406 32.507812 42.566406 32.621094 42.566406 32.738281 C 42.605469 33.066406 42.671875 33.242188 42.875 33.5 C 43.160156 33.542969 43.160156 33.542969 43.46875 33.511719 C 44.015625 33.472656 44.015625 33.472656 44.230469 33.605469 C 44.363281 33.824219 44.363281 33.972656 44.355469 34.226562 C 44.355469 34.308594 44.351562 34.386719 44.351562 34.46875 C 44.332031 34.683594 44.332031 34.683594 44.242188 34.957031 C 44.183594 34.957031 44.121094 34.957031 44.058594 34.957031 C 44.039062 35.011719 44.015625 35.066406 43.992188 35.121094 C 43.851562 35.367188 43.769531 35.464844 43.511719 35.59375 C 43.015625 35.675781 42.578125 35.609375 42.140625 35.363281 C 41.453125 34.839844 41 33.980469 40.875 33.136719 C 40.816406 31.925781 40.867188 30.957031 41.601562 29.949219 C 41.835938 29.832031 41.980469 29.828125 42.238281 29.859375 Z M 42.238281 29.859375 "/>
<path style=" stroke:none;fill-rule:nonzero;fill:rgb(4.705882%,4.705882%,4.705882%);fill-opacity:1;" d="M 19.550781 20.328125 C 19.703125 20.34375 19.703125 20.34375 19.863281 20.359375 C 20.636719 20.449219 21.382812 20.601562 22.121094 20.847656 C 22.023438 21.363281 21.664062 21.652344 21.25 21.949219 C 20.65625 22.359375 20.042969 22.722656 19.390625 23.03125 C 19.34375 23.078125 19.34375 23.078125 19.300781 23.121094 C 19.117188 23.125 18.933594 23.125 18.753906 23.121094 C 18.867188 22.445312 19.523438 21.984375 20.027344 21.574219 C 20.058594 21.515625 20.085938 21.453125 20.117188 21.394531 C 19.964844 21.351562 19.816406 21.308594 19.664062 21.265625 C 19.578125 21.246094 19.492188 21.222656 19.40625 21.195312 C 19.3125 21.171875 19.214844 21.144531 19.117188 21.121094 C 19.003906 21.085938 18.894531 21.054688 18.777344 21.019531 C 18.332031 20.910156 17.890625 20.90625 17.433594 20.910156 C 17.34375 20.910156 17.257812 20.910156 17.167969 20.910156 C 16.160156 20.925781 15.21875 21.085938 14.273438 21.4375 C 14.046875 21.5 13.871094 21.46875 13.65625 21.394531 C 13.65625 21.332031 13.65625 21.273438 13.65625 21.210938 C 13.476562 21.054688 13.292969 20.902344 13.109375 20.753906 C 13.375 20.488281 13.691406 20.488281 14.054688 20.429688 C 14.128906 20.417969 14.203125 20.40625 14.28125 20.394531 C 16.035156 20.125 17.789062 20.144531 19.550781 20.328125 Z M 19.550781 20.328125 "/>
<path style=" stroke:none;fill-rule:nonzero;fill:rgb(96.078432%,96.078432%,96.078432%);fill-opacity:1;" d="M 31.589844 31.769531 C 31.367188 32.882812 31.070312 33.992188 30.269531 34.832031 C 29.980469 34.988281 29.816406 35.011719 29.496094 34.957031 C 29.277344 34.835938 29.277344 34.835938 29.128906 34.59375 C 29.03125 34.066406 29.070312 33.621094 29.351562 33.160156 C 29.859375 32.496094 30.710938 31.769531 31.589844 31.769531 Z M 31.589844 31.769531 "/>
<path style=" stroke:none;fill-rule:nonzero;fill:rgb(3.137255%,3.137255%,3.137255%);fill-opacity:1;" d="M 42.601562 26.945312 C 42.949219 27.128906 43.113281 27.257812 43.332031 27.582031 C 43.394531 27.925781 43.40625 28.261719 43.242188 28.574219 C 43.089844 28.769531 42.933594 28.921875 42.710938 29.027344 C 42.644531 29.03125 42.578125 29.035156 42.511719 29.039062 C 42.394531 29.050781 42.277344 29.0625 42.152344 29.074219 C 41.832031 29.070312 41.789062 29.042969 41.523438 28.824219 C 41.425781 28.703125 41.425781 28.703125 41.328125 28.585938 C 41.269531 28.523438 41.207031 28.464844 41.148438 28.402344 C 41.082031 28.058594 41.070312 27.71875 41.242188 27.410156 C 41.644531 26.921875 41.996094 26.871094 42.601562 26.945312 Z M 42.601562 26.945312 "/>
<path style=" stroke:none;fill-rule:nonzero;fill:rgb(93.333334%,93.333334%,93.333334%);fill-opacity:1;" d="M 53.898438 32.929688 C 53.992188 32.933594 54.089844 32.933594 54.191406 32.933594 C 54.4375 32.953125 54.4375 32.953125 54.621094 33.042969 C 54.785156 33.058594 54.949219 33.066406 55.117188 33.074219 C 55.214844 33.078125 55.3125 33.082031 55.414062 33.085938 C 55.566406 33.089844 55.566406 33.089844 55.722656 33.097656 C 55.828125 33.101562 55.929688 33.105469 56.035156 33.109375 C 56.292969 33.117188 56.546875 33.125 56.804688 33.136719 C 56.804688 33.164062 56.804688 33.195312 56.804688 33.226562 C 56.382812 33.257812 55.964844 33.285156 55.53125 33.316406 C 55.53125 33.378906 55.53125 33.4375 55.53125 33.5 C 55.589844 33.558594 55.648438 33.621094 55.710938 33.683594 C 55.53125 33.773438 55.53125 33.773438 55.347656 33.863281 C 55.40625 33.925781 55.46875 33.984375 55.53125 34.046875 C 54.160156 34.441406 54.160156 34.441406 53.527344 34.320312 C 53.242188 34.132812 53.242188 34.132812 53.070312 33.863281 C 53 33.335938 53 33.335938 53.175781 33.074219 C 53.417969 32.902344 53.605469 32.925781 53.898438 32.929688 Z M 53.898438 32.929688 "/>
<path style=" stroke:none;fill-rule:nonzero;fill:rgb(3.921569%,3.921569%,3.921569%);fill-opacity:1;" d="M 20.753906 34.773438 C 20.996094 34.894531 21.234375 35.015625 21.484375 35.136719 C 21.113281 35.59375 20.605469 35.902344 20.023438 35.984375 C 19.222656 36.046875 18.351562 36.054688 17.660156 35.59375 C 17.601562 35.503906 17.539062 35.414062 17.476562 35.320312 C 17.824219 35.152344 18.019531 35.121094 18.386719 35.230469 C 18.449219 35.257812 18.507812 35.289062 18.570312 35.320312 C 19.304688 35.390625 19.921875 35.3125 20.574219 34.957031 C 20.632812 34.894531 20.695312 34.835938 20.753906 34.773438 Z M 20.753906 34.773438 "/>
<path style=" stroke:none;fill-rule:nonzero;fill:rgb(96.078432%,96.078432%,96.078432%);fill-opacity:1;" d="M 55.074219 31.132812 C 55.308594 31.230469 55.433594 31.324219 55.621094 31.496094 C 55.605469 31.714844 55.605469 31.714844 55.53125 31.953125 C 55.21875 32.113281 54.960938 32.15625 54.613281 32.152344 C 54.484375 32.152344 54.484375 32.152344 54.355469 32.152344 C 54.269531 32.148438 54.179688 32.148438 54.089844 32.144531 C 54 32.144531 53.914062 32.144531 53.820312 32.144531 C 53.601562 32.140625 53.382812 32.136719 53.164062 32.132812 C 53.226562 31.703125 53.339844 31.511719 53.675781 31.238281 C 54.117188 31.019531 54.597656 31.058594 55.074219 31.132812 Z M 55.074219 31.132812 "/>
<path style=" stroke:none;fill-rule:nonzero;fill:rgb(38.039216%,38.039216%,38.039216%);fill-opacity:1;" d="M 16.933594 32.773438 C 16.960938 32.773438 16.992188 32.773438 17.023438 32.773438 C 17.03125 32.835938 17.039062 32.898438 17.046875 32.964844 C 17.140625 33.609375 17.273438 34.210938 17.820312 34.621094 C 17.972656 34.710938 18.136719 34.789062 18.296875 34.867188 C 18.351562 34.898438 18.40625 34.929688 18.464844 34.964844 C 18.949219 35.167969 19.582031 35.117188 20.082031 34.984375 C 20.558594 34.789062 20.933594 34.492188 21.300781 34.136719 C 21.179688 34.652344 20.816406 34.875 20.390625 35.136719 C 19.824219 35.453125 19.207031 35.511719 18.570312 35.410156 C 18.054688 35.210938 17.59375 34.980469 17.296875 34.5 C 17.296875 34.441406 17.296875 34.382812 17.296875 34.320312 C 17.234375 34.320312 17.175781 34.320312 17.113281 34.320312 C 16.941406 33.859375 16.792969 33.453125 16.839844 32.953125 C 16.871094 32.894531 16.902344 32.832031 16.933594 32.773438 Z M 16.933594 32.773438 "/>
<path style=" stroke:none;fill-rule:nonzero;fill:rgb(89.019608%,89.019608%,89.019608%);fill-opacity:1;" d="M 20.753906 31.496094 C 20.941406 31.59375 20.941406 31.59375 21.027344 31.769531 C 21.023438 32.113281 21.011719 32.324219 20.777344 32.585938 C 20.535156 32.699219 20.386719 32.714844 20.117188 32.679688 C 19.84375 32.5 19.84375 32.5 19.789062 32.332031 C 19.726562 31.828125 19.726562 31.828125 19.839844 31.589844 C 20.140625 31.441406 20.429688 31.449219 20.753906 31.496094 Z M 20.753906 31.496094 "/>
<path style=" stroke:none;fill-rule:nonzero;fill:rgb(91.37255%,91.37255%,91.37255%);fill-opacity:1;" d="M 18.570312 33.316406 C 18.785156 33.421875 18.785156 33.421875 18.933594 33.589844 C 18.992188 33.921875 18.976562 34.074219 18.785156 34.351562 C 18.507812 34.542969 18.355469 34.550781 18.023438 34.5 C 17.855469 34.40625 17.855469 34.40625 17.75 34.226562 C 17.695312 33.691406 17.695312 33.691406 17.855469 33.414062 C 18.105469 33.269531 18.285156 33.28125 18.570312 33.316406 Z M 18.570312 33.316406 "/>
<path style=" stroke:none;fill-rule:nonzero;fill:rgb(80.000001%,80.000001%,80.000001%);fill-opacity:1;" d="M 22.304688 30.679688 C 22.332031 30.679688 22.363281 30.679688 22.394531 30.679688 C 22.402344 30.730469 22.410156 30.785156 22.421875 30.839844 C 22.523438 31.378906 22.664062 31.8125 23.105469 32.179688 C 23.449219 32.488281 23.59375 32.722656 23.617188 33.183594 C 23.625 33.59375 23.605469 34 23.578125 34.410156 C 23.546875 34.410156 23.515625 34.410156 23.488281 34.410156 C 23.457031 33.898438 23.425781 33.390625 23.394531 32.863281 C 23.183594 32.832031 22.976562 32.800781 22.757812 32.773438 C 22.757812 32.710938 22.757812 32.652344 22.757812 32.589844 C 22.667969 32.589844 22.578125 32.589844 22.484375 32.589844 C 22.484375 32.828125 22.484375 33.070312 22.484375 33.316406 C 22.453125 33.316406 22.425781 33.316406 22.394531 33.316406 C 22.390625 33.234375 22.386719 33.152344 22.382812 33.066406 C 22.347656 32.402344 22.277344 31.84375 22.03125 31.222656 C 22.089844 31.164062 22.148438 31.105469 22.210938 31.042969 C 22.269531 30.855469 22.269531 30.855469 22.304688 30.679688 Z M 22.304688 30.679688 "/>
<path style=" stroke:none;fill-rule:nonzero;fill:rgb(91.764706%,91.764706%,91.764706%);fill-opacity:1;" d="M 20.4375 33.097656 C 20.71875 33.144531 20.839844 33.191406 21.027344 33.410156 C 21.066406 33.722656 21.085938 33.941406 20.933594 34.222656 C 20.648438 34.375 20.433594 34.359375 20.117188 34.320312 C 19.902344 34.128906 19.855469 34.007812 19.804688 33.726562 C 19.871094 33.351562 20.058594 33.164062 20.4375 33.097656 Z M 20.4375 33.097656 "/>
<path style=" stroke:none;fill-rule:nonzero;fill:rgb(7.450981%,7.450981%,7.450981%);fill-opacity:1;" d="M 37.230469 39.597656 C 37.324219 39.628906 37.414062 39.660156 37.503906 39.691406 C 37.566406 39.878906 37.566406 39.878906 37.597656 40.054688 C 37.675781 40.046875 37.757812 40.035156 37.839844 40.027344 C 38.144531 40.054688 38.144531 40.054688 38.40625 40.265625 C 38.597656 40.507812 38.597656 40.507812 38.597656 40.78125 C 38.386719 40.722656 38.175781 40.664062 37.960938 40.601562 C 37.960938 40.660156 37.960938 40.722656 37.960938 40.78125 C 37.808594 40.78125 37.660156 40.78125 37.503906 40.78125 C 37.476562 40.691406 37.445312 40.601562 37.414062 40.507812 C 37.355469 40.507812 37.292969 40.507812 37.230469 40.507812 C 37.230469 40.570312 37.230469 40.628906 37.230469 40.691406 C 37.050781 40.722656 36.871094 40.75 36.6875 40.78125 C 36.746094 40.722656 36.804688 40.664062 36.867188 40.601562 C 36.921875 40.449219 36.96875 40.292969 37.011719 40.140625 C 37.132812 39.699219 37.132812 39.699219 37.230469 39.597656 Z M 37.230469 39.597656 "/>
<path style=" stroke:none;fill-rule:nonzero;fill:rgb(92.941177%,92.941177%,92.941177%);fill-opacity:1;" d="M 18.480469 31.589844 C 18.660156 31.789062 18.660156 31.789062 18.753906 32.042969 C 18.730469 32.351562 18.699219 32.460938 18.480469 32.679688 C 18.308594 32.707031 18.308594 32.707031 18.117188 32.710938 C 18.050781 32.710938 17.988281 32.710938 17.921875 32.714844 C 17.867188 32.703125 17.808594 32.691406 17.75 32.679688 C 17.539062 32.363281 17.53125 32.234375 17.570312 31.863281 C 17.777344 31.496094 18.097656 31.535156 18.480469 31.589844 Z M 18.480469 31.589844 "/>
<path style=" stroke:none;fill-rule:nonzero;fill:rgb(85.490197%,85.490197%,85.490197%);fill-opacity:1;" d="M 22.757812 32.042969 C 23.128906 32.179688 23.386719 32.429688 23.578125 32.773438 C 23.628906 33.058594 23.621094 33.335938 23.605469 33.625 C 23.601562 33.738281 23.601562 33.738281 23.601562 33.855469 C 23.59375 34.039062 23.585938 34.226562 23.578125 34.410156 C 23.546875 34.410156 23.515625 34.410156 23.488281 34.410156 C 23.457031 33.898438 23.425781 33.390625 23.394531 32.863281 C 23.183594 32.832031 22.976562 32.800781 22.757812 32.773438 C 22.757812 32.710938 22.757812 32.652344 22.757812 32.589844 C 22.667969 32.589844 22.578125 32.589844 22.484375 32.589844 C 22.539062 32.328125 22.5625 32.238281 22.757812 32.042969 Z M 22.757812 32.042969 "/>
<path style=" stroke:none;fill-rule:nonzero;fill:rgb(30.980393%,30.980393%,30.980393%);fill-opacity:1;" d="M 21.210938 34.136719 C 21.210938 34.410156 21.210938 34.410156 21.003906 34.636719 C 20.3125 35.269531 19.730469 35.441406 18.800781 35.4375 C 18.570312 35.410156 18.570312 35.410156 18.386719 35.230469 C 18.628906 35.230469 18.871094 35.230469 19.117188 35.230469 C 19.117188 35.199219 19.117188 35.167969 19.117188 35.136719 C 19.183594 35.128906 19.25 35.117188 19.316406 35.109375 C 20.152344 34.972656 20.632812 34.753906 21.210938 34.136719 Z M 21.210938 34.136719 "/>
<path style=" stroke:none;fill-rule:nonzero;fill:rgb(88.235295%,88.235295%,88.235295%);fill-opacity:1;" d="M 38.234375 42.238281 C 38.382812 42.238281 38.535156 42.238281 38.6875 42.238281 C 38.6875 42.660156 38.6875 43.082031 38.6875 43.511719 C 38.597656 43.511719 38.507812 43.511719 38.414062 43.511719 C 38.242188 43.222656 38.214844 43.007812 38.222656 42.671875 C 38.226562 42.550781 38.226562 42.550781 38.226562 42.425781 C 38.230469 42.363281 38.230469 42.300781 38.234375 42.238281 Z M 38.234375 42.238281 "/>
<path style=" stroke:none;fill-rule:nonzero;fill:rgb(92.156863%,92.156863%,92.156863%);fill-opacity:1;" d="M 29.675781 34.226562 C 29.738281 34.347656 29.796875 34.46875 29.859375 34.59375 C 29.917969 34.53125 29.980469 34.472656 30.039062 34.410156 C 30.039062 34.46875 30.039062 34.53125 30.039062 34.59375 C 30.101562 34.59375 30.160156 34.59375 30.222656 34.59375 C 30.191406 34.503906 30.164062 34.414062 30.132812 34.320312 C 30.191406 34.320312 30.253906 34.320312 30.3125 34.320312 C 30.34375 34.441406 30.375 34.558594 30.40625 34.683594 C 30.1875 34.882812 30.0625 34.953125 29.769531 34.996094 C 29.4375 34.949219 29.335938 34.847656 29.128906 34.59375 C 29.160156 34.503906 29.191406 34.414062 29.222656 34.320312 C 29.371094 34.347656 29.523438 34.378906 29.675781 34.410156 C 29.675781 34.351562 29.675781 34.289062 29.675781 34.226562 Z M 29.675781 34.226562 "/>
<path style=" stroke:none;fill-rule:nonzero;fill:rgb(10.980392%,10.980392%,10.980392%);fill-opacity:1;" d="M 39.324219 45.515625 C 39.660156 45.796875 39.742188 45.992188 39.78125 46.425781 C 39.523438 46.449219 39.523438 46.449219 39.234375 46.425781 C 39.0625 46.246094 39.0625 46.246094 38.960938 46.0625 C 39.023438 45.941406 39.082031 45.820312 39.144531 45.699219 C 39.203125 45.699219 39.265625 45.699219 39.324219 45.699219 C 39.324219 45.636719 39.324219 45.578125 39.324219 45.515625 Z M 39.324219 45.515625 "/>
<path style=" stroke:none;fill-rule:nonzero;fill:rgb(8.235294%,8.235294%,8.235294%);fill-opacity:1;" d="M 49.613281 35.957031 C 49.671875 35.957031 49.734375 35.957031 49.792969 35.957031 C 49.792969 36.019531 49.792969 36.078125 49.792969 36.140625 C 49.855469 36.140625 49.914062 36.140625 49.976562 36.140625 C 50.007812 36.078125 50.035156 36.019531 50.066406 35.957031 C 50.128906 35.988281 50.1875 36.019531 50.25 36.050781 C 50.140625 36.277344 50.027344 36.476562 49.886719 36.6875 C 49.671875 36.664062 49.460938 36.632812 49.25 36.59375 C 49.21875 36.535156 49.1875 36.476562 49.15625 36.414062 C 49.21875 36.414062 49.277344 36.414062 49.339844 36.414062 C 49.371094 36.351562 49.398438 36.292969 49.429688 36.230469 C 49.492188 36.140625 49.550781 36.050781 49.613281 35.957031 Z M 49.613281 35.957031 "/>
<path style=" stroke:none;fill-rule:nonzero;fill:rgb(17.254902%,17.254902%,17.254902%);fill-opacity:1;" d="M 34.410156 34.957031 C 34.65625 34.992188 34.761719 35.03125 34.9375 35.210938 C 35.046875 35.410156 35.046875 35.410156 35.019531 35.617188 C 35 35.667969 34.976562 35.722656 34.957031 35.777344 C 34.84375 35.78125 34.726562 35.785156 34.609375 35.789062 C 34.546875 35.789062 34.480469 35.792969 34.414062 35.792969 C 34.226562 35.777344 34.226562 35.777344 33.957031 35.59375 C 34.011719 35.585938 34.066406 35.574219 34.125 35.566406 C 34.351562 35.515625 34.351562 35.515625 34.5 35.230469 C 34.472656 35.140625 34.441406 35.050781 34.410156 34.957031 Z M 34.410156 34.957031 "/>
<path style=" stroke:none;fill-rule:nonzero;fill:rgb(81.568629%,81.568629%,81.568629%);fill-opacity:1;" d="M 37.777344 40.054688 C 38.277344 40.097656 38.277344 40.097656 38.496094 40.316406 C 38.597656 40.507812 38.597656 40.507812 38.597656 40.78125 C 37.910156 40.613281 37.910156 40.613281 37.6875 40.328125 C 37.71875 40.238281 37.746094 40.148438 37.777344 40.054688 Z M 37.777344 40.054688 "/>
<path style=" stroke:none;fill-rule:nonzero;fill:rgb(84.313726%,84.313726%,84.313726%);fill-opacity:1;" d="M 40.066406 40.042969 C 40.152344 40.046875 40.238281 40.050781 40.328125 40.054688 C 40.308594 40.21875 40.308594 40.21875 40.238281 40.417969 C 39.972656 40.613281 39.839844 40.691406 39.507812 40.691406 C 39.609375 40.0625 39.609375 40.0625 40.066406 40.042969 Z M 40.066406 40.042969 "/>
<path style=" stroke:none;fill-rule:nonzero;fill:rgb(92.54902%,92.54902%,92.54902%);fill-opacity:1;" d="M 40.78125 28.402344 C 40.980469 28.367188 40.980469 28.367188 41.238281 28.402344 C 41.417969 28.570312 41.546875 28.746094 41.691406 28.949219 C 41.414062 28.996094 41.15625 29.039062 40.875 29.039062 C 40.84375 28.828125 40.8125 28.617188 40.78125 28.402344 Z M 40.78125 28.402344 "/>
<path style=" stroke:none;fill-rule:nonzero;fill:rgb(12.54902%,12.54902%,12.54902%);fill-opacity:1;" d="M 41.328125 40.417969 C 41.449219 40.480469 41.570312 40.539062 41.691406 40.601562 C 41.664062 40.882812 41.636719 41.019531 41.429688 41.226562 C 41.367188 41.261719 41.304688 41.292969 41.238281 41.328125 C 41.148438 41.296875 41.058594 41.269531 40.964844 41.238281 C 41.015625 40.933594 41.109375 40.808594 41.328125 40.601562 C 41.328125 40.539062 41.328125 40.480469 41.328125 40.417969 Z M 41.328125 40.417969 "/>
<path style=" stroke:none;fill-rule:nonzero;fill:rgb(92.54902%,92.54902%,92.54902%);fill-opacity:1;" d="M 46.527344 30.609375 C 46.699219 30.679688 46.699219 30.679688 46.789062 30.859375 C 46.691406 30.9375 46.589844 31.015625 46.488281 31.09375 C 46.433594 31.136719 46.378906 31.179688 46.320312 31.222656 C 46.265625 31.253906 46.210938 31.285156 46.152344 31.316406 C 46.0625 31.285156 45.972656 31.253906 45.878906 31.222656 C 46.109375 30.558594 46.109375 30.558594 46.527344 30.609375 Z M 46.527344 30.609375 "/>
<path style=" stroke:none;fill-rule:nonzero;fill:rgb(7.058824%,7.058824%,7.058824%);fill-opacity:1;" d="M 20.753906 34.773438 C 21.117188 34.953125 21.117188 34.953125 21.484375 35.136719 C 21.324219 35.328125 21.324219 35.328125 21.121094 35.503906 C 20.921875 35.496094 20.921875 35.496094 20.753906 35.410156 C 20.664062 35.136719 20.664062 35.136719 20.753906 34.773438 Z M 20.753906 34.773438 "/>
<path style=" stroke:none;fill-rule:nonzero;fill:rgb(83.92157%,83.92157%,83.92157%);fill-opacity:1;" d="M 32.5 34.226562 C 32.558594 34.347656 32.617188 34.46875 32.679688 34.59375 C 32.589844 34.726562 32.589844 34.726562 32.5 34.867188 C 32.4375 34.867188 32.378906 34.867188 32.316406 34.867188 C 32.1875 34.980469 32.0625 35.105469 31.941406 35.230469 C 31.84375 35.332031 31.84375 35.332031 31.742188 35.433594 C 31.691406 35.488281 31.640625 35.539062 31.589844 35.59375 C 31.527344 35.5625 31.46875 35.535156 31.40625 35.503906 C 31.46875 35.433594 31.535156 35.363281 31.597656 35.292969 C 31.683594 35.203125 31.765625 35.109375 31.851562 35.019531 C 31.890625 34.972656 31.933594 34.929688 31.976562 34.882812 C 32.167969 34.671875 32.339844 34.464844 32.5 34.226562 Z M 32.5 34.226562 "/>
<path style=" stroke:none;fill-rule:nonzero;fill:rgb(86.274511%,86.274511%,86.274511%);fill-opacity:1;" d="M 46.609375 32.773438 C 46.667969 32.800781 46.730469 32.832031 46.789062 32.863281 C 46.734375 33.132812 46.675781 33.261719 46.519531 33.5 C 46.425781 33.53125 46.335938 33.558594 46.246094 33.589844 C 46.089844 33.820312 46.089844 33.820312 45.972656 34.046875 C 45.941406 33.984375 45.910156 33.925781 45.878906 33.863281 C 45.960938 33.675781 45.960938 33.675781 46.085938 33.460938 C 46.144531 33.351562 46.144531 33.351562 46.207031 33.246094 C 46.324219 33.058594 46.445312 32.917969 46.609375 32.773438 Z M 46.609375 32.773438 "/>
<path style=" stroke:none;fill-rule:nonzero;fill:rgb(27.843139%,27.843139%,27.843139%);fill-opacity:1;" d="M 16.933594 32.773438 C 16.960938 32.773438 16.992188 32.773438 17.023438 32.773438 C 17.035156 32.839844 17.046875 32.90625 17.054688 32.976562 C 17.070312 33.0625 17.085938 33.152344 17.101562 33.242188 C 17.117188 33.332031 17.132812 33.417969 17.148438 33.507812 C 17.203125 33.765625 17.28125 33.988281 17.386719 34.226562 C 17.296875 34.257812 17.207031 34.289062 17.113281 34.320312 C 16.941406 33.859375 16.792969 33.453125 16.839844 32.953125 C 16.871094 32.894531 16.902344 32.832031 16.933594 32.773438 Z M 16.933594 32.773438 "/>
<path style=" stroke:none;fill-rule:nonzero;fill:rgb(10.588235%,10.588235%,10.588235%);fill-opacity:1;" d="M 29.496094 31.589844 C 29.554688 31.617188 29.613281 31.648438 29.675781 31.679688 C 29.382812 32.132812 29.140625 32.394531 28.675781 32.679688 C 28.644531 32.742188 28.613281 32.800781 28.585938 32.863281 C 28.523438 32.832031 28.464844 32.800781 28.402344 32.773438 C 28.753906 32.363281 29.109375 31.964844 29.496094 31.589844 Z M 29.496094 31.589844 "/>
<path style=" stroke:none;fill-rule:nonzero;fill:rgb(12.54902%,12.54902%,12.54902%);fill-opacity:1;" d="M 45.605469 31.769531 C 45.667969 31.890625 45.726562 32.011719 45.789062 32.132812 C 45.757812 32.164062 45.730469 32.195312 45.699219 32.226562 C 45.699219 32.347656 45.699219 32.464844 45.699219 32.589844 C 45.519531 32.621094 45.335938 32.648438 45.152344 32.679688 C 45.257812 32.324219 45.367188 32.054688 45.605469 31.769531 Z M 45.605469 31.769531 "/>
<path style=" stroke:none;fill-rule:nonzero;fill:rgb(83.529413%,83.529413%,83.529413%);fill-opacity:1;" d="M 20.027344 31.496094 C 20.085938 31.527344 20.148438 31.558594 20.210938 31.589844 C 20.179688 31.648438 20.148438 31.707031 20.117188 31.769531 C 20.179688 31.800781 20.238281 31.832031 20.300781 31.863281 C 20.269531 31.953125 20.238281 32.042969 20.210938 32.132812 C 20.148438 32.132812 20.089844 32.132812 20.027344 32.132812 C 20.058594 32.226562 20.085938 32.316406 20.117188 32.40625 C 19.996094 32.347656 19.878906 32.289062 19.753906 32.226562 C 19.71875 31.8125 19.71875 31.8125 19.890625 31.605469 C 19.9375 31.570312 19.980469 31.535156 20.027344 31.496094 Z M 20.027344 31.496094 "/>
<path style=" stroke:none;fill-rule:nonzero;fill:rgb(97.254902%,97.254902%,97.254902%);fill-opacity:1;" d="M 20.210938 31.496094 C 20.328125 31.496094 20.449219 31.496094 20.574219 31.496094 C 20.640625 31.652344 20.640625 31.652344 20.664062 31.863281 C 20.503906 32.113281 20.503906 32.113281 20.300781 32.316406 C 20.210938 32.316406 20.121094 32.316406 20.027344 32.316406 C 20.027344 32.132812 20.027344 32.132812 20.164062 31.988281 C 20.207031 31.945312 20.253906 31.902344 20.300781 31.863281 C 20.210938 31.832031 20.121094 31.800781 20.027344 31.769531 C 20.085938 31.679688 20.148438 31.589844 20.210938 31.496094 Z M 20.210938 31.496094 "/>
<path style=" stroke:none;fill-rule:nonzero;fill:rgb(87.843138%,87.843138%,87.843138%);fill-opacity:1;" d="M 50.066406 36.320312 C 50.128906 36.414062 50.1875 36.503906 50.25 36.59375 C 50.175781 36.773438 50.175781 36.773438 50.066406 36.960938 C 49.976562 36.988281 49.886719 37.019531 49.792969 37.050781 C 49.734375 37.019531 49.675781 36.988281 49.613281 36.960938 C 49.613281 36.898438 49.613281 36.839844 49.613281 36.777344 C 49.523438 36.746094 49.433594 36.71875 49.339844 36.6875 C 49.566406 36.574219 49.648438 36.617188 49.886719 36.6875 C 49.945312 36.566406 50.007812 36.445312 50.066406 36.320312 Z M 50.066406 36.320312 "/>
<path style=" stroke:none;fill-rule:nonzero;fill:rgb(84.313726%,84.313726%,84.313726%);fill-opacity:1;" d="M 13.5625 35.046875 C 13.671875 35.261719 13.761719 35.457031 13.835938 35.683594 C 13.492188 35.554688 13.164062 35.398438 12.835938 35.230469 C 13.117188 35.070312 13.222656 35.046875 13.5625 35.046875 Z M 13.5625 35.046875 "/>
<path style=" stroke:none;fill-rule:nonzero;fill:rgb(84.705883%,84.705883%,84.705883%);fill-opacity:1;" d="M 30.3125 32.226562 C 30.375 32.253906 30.433594 32.285156 30.496094 32.316406 C 30.316406 32.65625 30.203125 32.796875 29.859375 32.953125 C 29.671875 33.097656 29.492188 33.253906 29.3125 33.410156 C 29.519531 32.917969 29.871094 32.519531 30.3125 32.226562 Z M 30.3125 32.226562 "/>
<path style=" stroke:none;fill-rule:nonzero;fill:rgb(83.92157%,83.92157%,83.92157%);fill-opacity:1;" d="M 22.304688 30.679688 C 22.332031 30.679688 22.363281 30.679688 22.394531 30.679688 C 22.453125 31.007812 22.515625 31.339844 22.574219 31.679688 C 22.457031 31.710938 22.335938 31.738281 22.210938 31.769531 C 22.152344 31.589844 22.089844 31.410156 22.03125 31.222656 C 22.089844 31.164062 22.148438 31.105469 22.210938 31.042969 C 22.269531 30.855469 22.269531 30.855469 22.304688 30.679688 Z M 22.304688 30.679688 "/>
<path style=" stroke:none;fill-rule:nonzero;fill:rgb(9.411765%,9.411765%,9.411765%);fill-opacity:1;" d="M 17.75 34.226562 C 17.839844 34.289062 17.929688 34.347656 18.023438 34.410156 C 18.175781 34.445312 18.328125 34.476562 18.480469 34.5 C 18.417969 34.5625 18.359375 34.621094 18.296875 34.683594 C 18.296875 34.773438 18.296875 34.863281 18.296875 34.957031 C 17.671875 34.625 17.671875 34.625 17.570312 34.320312 C 17.628906 34.289062 17.691406 34.257812 17.75 34.226562 Z M 17.75 34.226562 "/>
<path style=" stroke:none;fill-rule:nonzero;fill:rgb(1.176471%,1.176471%,1.176471%);fill-opacity:1;" d="M 17.75 32.679688 C 17.929688 32.742188 18.113281 32.800781 18.296875 32.863281 C 18.238281 33.011719 18.175781 33.164062 18.117188 33.316406 C 17.964844 33.316406 17.816406 33.316406 17.660156 33.316406 C 17.65625 33.136719 17.65625 32.953125 17.660156 32.773438 C 17.691406 32.742188 17.71875 32.710938 17.75 32.679688 Z M 17.75 32.679688 "/>
<path style=" stroke:none;fill-rule:nonzero;fill:rgb(7.843138%,7.843138%,7.843138%);fill-opacity:1;" d="M 18.207031 35.136719 C 18.144531 35.320312 18.085938 35.5 18.023438 35.683594 C 17.800781 35.59375 17.800781 35.59375 17.570312 35.503906 C 17.570312 35.414062 17.570312 35.324219 17.570312 35.230469 C 17.796875 35.167969 17.96875 35.136719 18.207031 35.136719 Z M 18.207031 35.136719 "/>
<path style=" stroke:none;fill-rule:nonzero;fill:rgb(94.117647%,94.117647%,94.117647%);fill-opacity:1;" d="M 45.605469 31.316406 C 45.667969 31.34375 45.726562 31.375 45.789062 31.40625 C 45.738281 31.75 45.589844 31.90625 45.335938 32.132812 C 45.273438 31.984375 45.214844 31.835938 45.152344 31.679688 C 45.300781 31.558594 45.453125 31.4375 45.605469 31.316406 Z M 45.605469 31.316406 "/>
<path style=" stroke:none;fill-rule:nonzero;fill:rgb(92.54902%,92.54902%,92.54902%);fill-opacity:1;" d="M 47.609375 32.773438 C 47.847656 32.867188 47.957031 32.921875 48.089844 33.148438 C 48.109375 33.203125 48.132812 33.261719 48.15625 33.316406 C 48.007812 33.347656 47.855469 33.378906 47.699219 33.410156 C 47.699219 33.320312 47.699219 33.230469 47.699219 33.136719 C 47.609375 33.136719 47.519531 33.136719 47.429688 33.136719 C 47.429688 33.074219 47.429688 33.015625 47.429688 32.953125 C 47.488281 32.953125 47.546875 32.953125 47.609375 32.953125 C 47.609375 32.894531 47.609375 32.832031 47.609375 32.773438 Z M 47.609375 32.773438 "/>
<path style=" stroke:none;fill-rule:nonzero;fill:rgb(16.470589%,16.470589%,16.470589%);fill-opacity:1;" d="M 39.234375 20.664062 C 39.324219 20.847656 39.324219 20.847656 39.257812 21.078125 C 39.144531 21.300781 39.144531 21.300781 38.871094 21.394531 C 38.839844 21.453125 38.8125 21.511719 38.78125 21.574219 C 38.75 21.636719 38.71875 21.695312 38.6875 21.757812 C 38.597656 21.785156 38.507812 21.816406 38.414062 21.847656 C 38.554688 21.355469 38.894531 21.03125 39.234375 20.664062 Z M 39.234375 20.664062 "/>
<path style=" stroke:none;fill-rule:nonzero;fill:rgb(15.294118%,15.294118%,15.294118%);fill-opacity:1;" d="M 40.054688 38.050781 C 40.175781 38.113281 40.292969 38.171875 40.417969 38.234375 C 40.292969 38.371094 40.292969 38.371094 40.144531 38.507812 C 40.085938 38.507812 40.023438 38.507812 39.964844 38.507812 C 39.992188 38.597656 40.023438 38.6875 40.054688 38.78125 C 39.875 38.871094 39.875 38.871094 39.691406 38.960938 C 39.734375 38.828125 39.777344 38.691406 39.820312 38.558594 C 39.84375 38.484375 39.871094 38.40625 39.894531 38.332031 C 39.964844 38.144531 39.964844 38.144531 40.054688 38.050781 Z M 40.054688 38.050781 "/>
<path style=" stroke:none;fill-rule:nonzero;fill:rgb(12.156863%,12.156863%,12.156863%);fill-opacity:1;" d="M 22.484375 30.496094 C 22.753906 30.53125 22.753906 30.53125 23.03125 30.585938 C 23.0625 30.648438 23.089844 30.707031 23.121094 30.769531 C 23.0625 30.769531 23.003906 30.769531 22.941406 30.769531 C 22.941406 30.828125 22.941406 30.890625 22.941406 30.949219 C 22.761719 30.949219 22.578125 30.949219 22.394531 30.949219 C 22.425781 30.800781 22.453125 30.652344 22.484375 30.496094 Z M 22.484375 30.496094 "/>
<path style=" stroke:none;fill-rule:nonzero;fill:rgb(90.196079%,90.196079%,90.196079%);fill-opacity:1;" d="M 26.21875 31.863281 C 26.523438 31.96875 26.730469 32.070312 26.945312 32.316406 C 26.824219 32.347656 26.707031 32.375 26.582031 32.40625 C 26.582031 32.347656 26.582031 32.289062 26.582031 32.226562 C 26.519531 32.226562 26.460938 32.226562 26.398438 32.226562 C 26.371094 32.285156 26.339844 32.347656 26.308594 32.40625 C 26.25 32.378906 26.1875 32.347656 26.125 32.316406 C 26.15625 32.167969 26.1875 32.015625 26.21875 31.863281 Z M 26.21875 31.863281 "/>
<path style=" stroke:none;fill-rule:nonzero;fill:rgb(80.784315%,80.784315%,80.784315%);fill-opacity:1;" d="M 53.617188 31.316406 C 53.679688 31.34375 53.738281 31.375 53.800781 31.40625 C 53.734375 31.511719 53.734375 31.511719 53.664062 31.617188 C 53.503906 31.855469 53.503906 31.855469 53.527344 32.132812 C 53.40625 32.132812 53.285156 32.132812 53.164062 32.132812 C 53.207031 31.742188 53.320312 31.574219 53.617188 31.316406 Z M 53.617188 31.316406 "/>
<path style=" stroke:none;fill-rule:nonzero;fill:rgb(87.450981%,87.450981%,87.450981%);fill-opacity:1;" d="M 23.757812 35.777344 C 23.941406 35.777344 24.121094 35.777344 24.304688 35.777344 C 24.335938 35.925781 24.367188 36.078125 24.398438 36.230469 C 24.214844 36.261719 24.035156 36.292969 23.851562 36.320312 C 23.871094 36.265625 23.886719 36.210938 23.90625 36.152344 C 23.917969 36.085938 23.929688 36.023438 23.941406 35.957031 C 23.882812 35.898438 23.820312 35.835938 23.757812 35.777344 Z M 23.757812 35.777344 "/>
<path style=" stroke:none;fill-rule:nonzero;fill:rgb(18.039216%,18.039216%,18.039216%);fill-opacity:1;" d="M 7.464844 23.851562 C 7.523438 23.941406 7.585938 24.03125 7.648438 24.125 C 7.585938 24.183594 7.527344 24.242188 7.464844 24.304688 C 7.433594 24.277344 7.40625 24.246094 7.375 24.214844 C 7.335938 24.316406 7.296875 24.421875 7.261719 24.527344 C 7.101562 24.851562 7.101562 24.851562 6.902344 24.9375 C 6.847656 24.9375 6.792969 24.941406 6.738281 24.941406 C 6.863281 24.667969 7.019531 24.433594 7.203125 24.191406 C 7.277344 24.09375 7.277344 24.09375 7.351562 23.996094 C 7.390625 23.949219 7.425781 23.898438 7.464844 23.851562 Z M 7.464844 23.851562 "/>
<path style=" stroke:none;fill-rule:nonzero;fill:rgb(17.254902%,17.254902%,17.254902%);fill-opacity:1;" d="M 25.671875 30.585938 C 25.332031 30.800781 25.082031 30.949219 24.667969 30.949219 C 24.640625 31.011719 24.609375 31.070312 24.578125 31.132812 C 24.578125 31.042969 24.578125 30.953125 24.578125 30.859375 C 24.691406 30.796875 24.804688 30.734375 24.921875 30.671875 C 25.015625 30.621094 25.015625 30.621094 25.113281 30.566406 C 25.339844 30.484375 25.445312 30.507812 25.671875 30.585938 Z M 25.671875 30.585938 "/>
<path style=" stroke:none;fill-rule:nonzero;fill:rgb(87.058824%,87.058824%,87.058824%);fill-opacity:1;" d="M 20.390625 22.484375 C 20.300781 22.757812 20.300781 22.757812 20.117188 22.941406 C 20.117188 23 20.117188 23.058594 20.117188 23.121094 C 19.9375 23.0625 19.757812 23.003906 19.570312 22.941406 C 19.804688 22.683594 20.035156 22.484375 20.390625 22.484375 Z M 20.390625 22.484375 "/>
<path style=" stroke:none;fill-rule:nonzero;fill:rgb(89.411765%,89.411765%,89.411765%);fill-opacity:1;" d="M 41.328125 41.238281 C 41.511719 41.511719 41.511719 41.511719 41.476562 41.710938 C 41.457031 41.765625 41.4375 41.820312 41.417969 41.875 C 41.148438 41.828125 41.148438 41.828125 40.875 41.785156 C 41.023438 41.605469 41.175781 41.421875 41.328125 41.238281 Z M 41.328125 41.238281 "/>
<path style=" stroke:none;fill-rule:nonzero;fill:rgb(80.000001%,80.000001%,80.000001%);fill-opacity:1;" d="M 20.574219 31.496094 C 20.925781 31.667969 20.925781 31.667969 21.027344 31.769531 C 21.003906 31.984375 20.972656 32.195312 20.9375 32.40625 C 20.753906 32.132812 20.753906 32.132812 20.664062 31.863281 C 20.605469 31.800781 20.542969 31.742188 20.480469 31.679688 C 20.511719 31.621094 20.542969 31.558594 20.574219 31.496094 Z M 20.574219 31.496094 "/>
<path style=" stroke:none;fill-rule:nonzero;fill:rgb(15.686275%,15.686275%,15.686275%);fill-opacity:1;" d="M 19.390625 22.757812 C 19.359375 22.878906 19.328125 23 19.300781 23.121094 C 19.117188 23.121094 18.9375 23.121094 18.753906 23.121094 C 18.753906 23.03125 18.753906 22.941406 18.753906 22.847656 C 19.027344 22.757812 19.027344 22.757812 19.390625 22.757812 Z M 19.390625 22.757812 "/>
<path style=" stroke:none;fill-rule:nonzero;fill:rgb(90.980393%,90.980393%,90.980393%);fill-opacity:1;" d="M 21.847656 34.957031 C 21.757812 35.230469 21.757812 35.230469 21.574219 35.320312 C 21.542969 35.410156 21.515625 35.5 21.484375 35.59375 C 21.304688 35.59375 21.125 35.59375 20.9375 35.59375 C 21.007812 35.539062 21.078125 35.484375 21.148438 35.429688 C 21.386719 35.246094 21.386719 35.246094 21.546875 35.070312 C 21.664062 34.957031 21.664062 34.957031 21.847656 34.957031 Z M 21.847656 34.957031 "/>
<path style=" stroke:none;fill-rule:nonzero;fill:rgb(28.235295%,28.235295%,28.235295%);fill-opacity:1;" d="M 42.421875 28.675781 C 42.691406 28.71875 42.691406 28.71875 42.96875 28.765625 C 42.875 28.949219 42.875 28.949219 42.734375 29.003906 C 42.414062 29.054688 42.105469 29.042969 41.785156 29.039062 C 41.785156 29.007812 41.785156 28.980469 41.785156 28.949219 C 41.996094 28.949219 42.203125 28.949219 42.421875 28.949219 C 42.421875 28.859375 42.421875 28.769531 42.421875 28.675781 Z M 42.421875 28.675781 "/>
<path style=" stroke:none;fill-rule:nonzero;fill:rgb(8.235294%,8.235294%,8.235294%);fill-opacity:1;" d="M 45.425781 34.320312 C 45.515625 34.347656 45.605469 34.378906 45.699219 34.410156 C 45.667969 34.558594 45.636719 34.710938 45.605469 34.867188 C 45.488281 34.867188 45.367188 34.867188 45.242188 34.867188 C 45.289062 34.667969 45.335938 34.5 45.425781 34.320312 Z M 45.425781 34.320312 "/>
<path style=" stroke:none;fill-rule:nonzero;fill:rgb(84.313726%,84.313726%,84.313726%);fill-opacity:1;" d="M 10.742188 23.121094 C 10.800781 23.152344 10.863281 23.183594 10.925781 23.214844 C 10.679688 23.457031 10.4375 23.699219 10.195312 23.941406 C 10.136719 23.882812 10.074219 23.820312 10.011719 23.757812 C 10.253906 23.550781 10.496094 23.339844 10.742188 23.121094 Z M 10.742188 23.121094 "/>
<path style=" stroke:none;fill-rule:nonzero;fill:rgb(85.09804%,85.09804%,85.09804%);fill-opacity:1;" d="M 31.222656 35.59375 C 31.285156 35.625 31.34375 35.652344 31.40625 35.683594 C 31.375 35.835938 31.347656 35.984375 31.316406 36.140625 C 31.136719 36.078125 30.953125 36.019531 30.769531 35.957031 C 30.917969 35.835938 31.070312 35.71875 31.222656 35.59375 Z M 31.222656 35.59375 "/>
<path style=" stroke:none;fill-rule:nonzero;fill:rgb(92.156863%,92.156863%,92.156863%);fill-opacity:1;" d="M 55.621094 33.863281 C 55.742188 33.894531 55.859375 33.925781 55.984375 33.957031 C 56.015625 34.136719 56.046875 34.316406 56.074219 34.5 C 55.984375 34.53125 55.894531 34.5625 55.804688 34.59375 C 55.6875 34.328125 55.621094 34.15625 55.621094 33.863281 Z M 55.621094 33.863281 "/>
<path style=" stroke:none;fill-rule:nonzero;fill:rgb(90.196079%,90.196079%,90.196079%);fill-opacity:1;" d="M 39.964844 40.054688 C 40.082031 40.054688 40.203125 40.054688 40.328125 40.054688 C 40.296875 40.175781 40.265625 40.292969 40.238281 40.417969 C 40.117188 40.417969 39.996094 40.417969 39.871094 40.417969 C 39.902344 40.296875 39.933594 40.179688 39.964844 40.054688 Z M 39.964844 40.054688 "/>
<path style=" stroke:none;fill-rule:nonzero;fill:rgb(78.039217%,78.039217%,78.039217%);fill-opacity:1;" d="M 39.144531 36.414062 C 39.324219 36.6875 39.324219 36.6875 39.324219 36.960938 C 39.097656 37.160156 39.097656 37.160156 38.871094 37.324219 C 38.960938 37.023438 39.050781 36.722656 39.144531 36.414062 Z M 39.144531 36.414062 "/>
<path style=" stroke:none;fill-rule:nonzero;fill:rgb(91.37255%,91.37255%,91.37255%);fill-opacity:1;" d="M 53.617188 30.132812 C 53.679688 30.160156 53.738281 30.191406 53.800781 30.222656 C 53.800781 30.28125 53.800781 30.34375 53.800781 30.40625 C 53.402344 30.679688 53.402344 30.679688 53.164062 30.679688 C 53.238281 30.457031 53.238281 30.457031 53.34375 30.222656 C 53.433594 30.191406 53.523438 30.164062 53.617188 30.132812 Z M 53.617188 30.132812 "/>
<path style=" stroke:none;fill-rule:nonzero;fill:rgb(23.529412%,23.529412%,23.529412%);fill-opacity:1;" d="M 14.199219 20.574219 C 14.019531 20.753906 14.019531 20.753906 13.835938 20.847656 C 13.835938 20.785156 13.835938 20.726562 13.835938 20.664062 C 13.597656 20.695312 13.355469 20.722656 13.109375 20.753906 C 13.414062 20.449219 13.800781 20.433594 14.199219 20.574219 Z M 14.199219 20.574219 "/>
<path style=" stroke:none;fill-rule:nonzero;fill:rgb(89.019608%,89.019608%,89.019608%);fill-opacity:1;" d="M 38.234375 26.492188 C 38.355469 26.550781 38.472656 26.609375 38.597656 26.671875 C 38.539062 26.792969 38.476562 26.914062 38.414062 27.035156 C 38.324219 27.007812 38.234375 26.976562 38.144531 26.945312 C 38.171875 26.796875 38.203125 26.644531 38.234375 26.492188 Z M 38.234375 26.492188 "/>
<path style=" stroke:none;fill-rule:nonzero;fill:rgb(93.725491%,93.725491%,93.725491%);fill-opacity:1;" d="M 39.871094 45.242188 C 39.902344 45.304688 39.933594 45.363281 39.964844 45.425781 C 39.933594 45.484375 39.902344 45.546875 39.871094 45.605469 C 39.8125 45.605469 39.753906 45.605469 39.691406 45.605469 C 39.71875 45.699219 39.75 45.789062 39.78125 45.878906 C 39.691406 45.851562 39.601562 45.820312 39.507812 45.789062 C 39.476562 45.699219 39.449219 45.609375 39.417969 45.515625 C 39.566406 45.425781 39.71875 45.335938 39.871094 45.242188 Z M 39.871094 45.242188 "/>
<path style=" stroke:none;fill-rule:nonzero;fill:rgb(92.941177%,92.941177%,92.941177%);fill-opacity:1;" d="M 36.777344 39.871094 C 36.867188 39.902344 36.957031 39.933594 37.050781 39.964844 C 36.988281 40.144531 36.929688 40.324219 36.867188 40.507812 C 36.6875 40.417969 36.6875 40.417969 36.59375 40.144531 C 36.65625 40.144531 36.714844 40.144531 36.777344 40.144531 C 36.777344 40.054688 36.777344 39.964844 36.777344 39.871094 Z M 36.777344 39.871094 "/>
<path style=" stroke:none;fill-rule:nonzero;fill:rgb(12.941177%,12.941177%,12.941177%);fill-opacity:1;" d="M 37.230469 39.597656 C 37.324219 39.628906 37.414062 39.660156 37.503906 39.691406 C 37.371094 39.914062 37.371094 39.914062 37.230469 40.144531 C 37.171875 40.117188 37.113281 40.085938 37.050781 40.054688 C 37.109375 39.902344 37.171875 39.753906 37.230469 39.597656 Z M 37.230469 39.597656 "/>
<path style=" stroke:none;fill-rule:nonzero;fill:rgb(7.450981%,7.450981%,7.450981%);fill-opacity:1;" d="M 37.871094 33.683594 C 38.097656 33.800781 38.097656 33.800781 38.324219 33.957031 C 38.324219 34.046875 38.324219 34.136719 38.324219 34.226562 C 38.097656 34.109375 38.097656 34.109375 37.871094 33.957031 C 37.871094 33.863281 37.871094 33.773438 37.871094 33.683594 Z M 37.871094 33.683594 "/>
<path style=" stroke:none;fill-rule:nonzero;fill:rgb(87.450981%,87.450981%,87.450981%);fill-opacity:1;" d="M 28.855469 31.769531 C 28.976562 31.832031 29.097656 31.890625 29.222656 31.953125 C 29.070312 32.074219 28.921875 32.191406 28.765625 32.316406 C 28.761719 32.164062 28.761719 32.011719 28.765625 31.863281 C 28.796875 31.832031 28.828125 31.800781 28.855469 31.769531 Z M 28.855469 31.769531 "/>
<path style=" stroke:none;fill-rule:nonzero;fill:rgb(94.901961%,94.901961%,94.901961%);fill-opacity:1;" d="M 32.953125 30.132812 C 33.179688 30.222656 33.179688 30.222656 33.410156 30.3125 C 33.136719 30.496094 33.136719 30.496094 32.949219 30.472656 C 32.769531 30.421875 32.589844 30.367188 32.40625 30.3125 C 32.40625 30.285156 32.40625 30.253906 32.40625 30.222656 C 32.585938 30.222656 32.769531 30.222656 32.953125 30.222656 C 32.953125 30.191406 32.953125 30.164062 32.953125 30.132812 Z M 32.953125 30.132812 "/>
<path style=" stroke:none;fill-rule:nonzero;fill:rgb(7.450981%,7.450981%,7.450981%);fill-opacity:1;" d="M 9.011719 24.125 C 9.101562 24.152344 9.191406 24.183594 9.285156 24.214844 C 9.316406 24.304688 9.34375 24.394531 9.375 24.488281 C 9.316406 24.546875 9.257812 24.609375 9.195312 24.667969 C 9.132812 24.609375 9.074219 24.550781 9.011719 24.488281 C 8.921875 24.53125 8.921875 24.53125 8.832031 24.578125 C 8.890625 24.429688 8.949219 24.277344 9.011719 24.125 Z M 9.011719 24.125 "/>
</g>
</svg>
